<svg width="475" height="48" viewBox="0 0 475 48" fill="none" xmlns="http://www.w3.org/2000/svg">
<g clip-path="url(#clip0_878_100468)">
<rect x="146" width="329" height="48" rx="3" fill="#121212"/>
<path fill-rule="evenodd" clip-rule="evenodd" d="M247.278 14.25C247.571 14.25 247.826 14.4408 247.913 14.7134L247.935 14.8071L248.583 18.6944H261.5C261.874 18.6944 262.169 19.0006 262.167 19.3636L262.16 19.4554L261.271 25.6776L261.24 25.8045C260.767 27.1488 259.496 28.0375 258.117 28.033L257.944 28.0278L251.76 28.0267C250.337 28.1074 249.028 27.2757 248.49 25.9701L248.427 25.8045L248.398 25.6929L247.391 19.6544L247.375 19.6206C247.352 19.5674 247.336 19.5107 247.328 19.4516L247.322 19.3611C247.322 19.3304 247.324 19.3002 247.328 19.2706L246.712 15.5833H245.5C245.162 15.5833 244.883 15.3325 244.839 15.0071L244.833 14.9167C244.833 14.5792 245.084 14.3002 245.409 14.2561L245.5 14.25H247.278ZM260.731 20.0278H248.805L249.701 25.4047L249.742 25.5073C250.055 26.2169 250.755 26.682 251.56 26.6974L251.722 26.6944L257.982 26.6955C258.819 26.743 259.59 26.2642 259.925 25.5073L259.961 25.4127L260.731 20.0278ZM248.389 31.3056C248.389 29.9555 249.483 28.8611 250.833 28.8611C252.183 28.8611 253.278 29.9555 253.278 31.3056C253.278 32.6556 252.183 33.75 250.833 33.75C249.483 33.75 248.389 32.6556 248.389 31.3056ZM251.944 31.3056C251.944 30.6919 251.447 30.1944 250.833 30.1944C250.22 30.1944 249.722 30.6919 249.722 31.3056C249.722 31.9192 250.22 32.4167 250.833 32.4167C251.447 32.4167 251.944 31.9192 251.944 31.3056ZM255.5 31.3056C255.5 29.9555 256.594 28.8611 257.944 28.8611C259.294 28.8611 260.389 29.9555 260.389 31.3056C260.389 32.6556 259.294 33.75 257.944 33.75C256.594 33.75 255.5 32.6556 255.5 31.3056ZM259.055 31.3056C259.055 30.6919 258.558 30.1944 257.944 30.1944C257.331 30.1944 256.833 30.6919 256.833 31.3056C256.833 31.9192 257.331 32.4167 257.944 32.4167C258.558 32.4167 259.055 31.9192 259.055 31.3056Z" fill="white"/>
<path d="M282.959 27.3H277.109L275.993 30H273.005L278.621 17.4H281.501L287.135 30H284.075L282.959 27.3ZM282.041 25.086L280.043 20.262L278.045 25.086H282.041ZM298.02 16.644V30H295.338V28.884C294.642 29.724 293.634 30.144 292.314 30.144C291.402 30.144 290.574 29.94 289.83 29.532C289.098 29.124 288.522 28.542 288.102 27.786C287.682 27.03 287.472 26.154 287.472 25.158C287.472 24.162 287.682 23.286 288.102 22.53C288.522 21.774 289.098 21.192 289.83 20.784C290.574 20.376 291.402 20.172 292.314 20.172C293.55 20.172 294.516 20.562 295.212 21.342V16.644H298.02ZM292.8 27.84C293.508 27.84 294.096 27.6 294.564 27.12C295.032 26.628 295.266 25.974 295.266 25.158C295.266 24.342 295.032 23.694 294.564 23.214C294.096 22.722 293.508 22.476 292.8 22.476C292.08 22.476 291.486 22.722 291.018 23.214C290.55 23.694 290.316 24.342 290.316 25.158C290.316 25.974 290.55 26.628 291.018 27.12C291.486 27.6 292.08 27.84 292.8 27.84ZM310.483 16.644V30H307.801V28.884C307.105 29.724 306.097 30.144 304.777 30.144C303.865 30.144 303.037 29.94 302.293 29.532C301.561 29.124 300.985 28.542 300.565 27.786C300.145 27.03 299.935 26.154 299.935 25.158C299.935 24.162 300.145 23.286 300.565 22.53C300.985 21.774 301.561 21.192 302.293 20.784C303.037 20.376 303.865 20.172 304.777 20.172C306.013 20.172 306.979 20.562 307.675 21.342V16.644H310.483ZM305.263 27.84C305.971 27.84 306.559 27.6 307.027 27.12C307.495 26.628 307.729 25.974 307.729 25.158C307.729 24.342 307.495 23.694 307.027 23.214C306.559 22.722 305.971 22.476 305.263 22.476C304.543 22.476 303.949 22.722 303.481 23.214C303.013 23.694 302.779 24.342 302.779 25.158C302.779 25.974 303.013 26.628 303.481 27.12C303.949 27.6 304.543 27.84 305.263 27.84ZM324.426 29.532C324.15 29.736 323.808 29.892 323.4 30C323.004 30.096 322.584 30.144 322.14 30.144C320.988 30.144 320.094 29.85 319.458 29.262C318.834 28.674 318.522 27.81 318.522 26.67V22.692H317.028V20.532H318.522V18.174H321.33V20.532H323.742V22.692H321.33V26.634C321.33 27.042 321.432 27.36 321.636 27.588C321.852 27.804 322.152 27.912 322.536 27.912C322.98 27.912 323.358 27.792 323.67 27.552L324.426 29.532ZM330.311 30.144C329.291 30.144 328.373 29.934 327.557 29.514C326.753 29.082 326.123 28.488 325.667 27.732C325.211 26.976 324.983 26.118 324.983 25.158C324.983 24.198 325.211 23.34 325.667 22.584C326.123 21.828 326.753 21.24 327.557 20.82C328.373 20.388 329.291 20.172 330.311 20.172C331.331 20.172 332.243 20.388 333.047 20.82C333.851 21.24 334.481 21.828 334.937 22.584C335.393 23.34 335.621 24.198 335.621 25.158C335.621 26.118 335.393 26.976 334.937 27.732C334.481 28.488 333.851 29.082 333.047 29.514C332.243 29.934 331.331 30.144 330.311 30.144ZM330.311 27.84C331.031 27.84 331.619 27.6 332.075 27.12C332.543 26.628 332.777 25.974 332.777 25.158C332.777 24.342 332.543 23.694 332.075 23.214C331.619 22.722 331.031 22.476 330.311 22.476C329.591 22.476 328.997 22.722 328.529 23.214C328.061 23.694 327.827 24.342 327.827 25.158C327.827 25.974 328.061 26.628 328.529 27.12C328.997 27.6 329.591 27.84 330.311 27.84ZM347.276 30.144C346.244 30.144 345.314 29.934 344.486 29.514C343.67 29.082 343.028 28.488 342.56 27.732C342.104 26.976 341.876 26.118 341.876 25.158C341.876 24.198 342.104 23.34 342.56 22.584C343.028 21.828 343.67 21.24 344.486 20.82C345.314 20.388 346.244 20.172 347.276 20.172C348.296 20.172 349.184 20.388 349.94 20.82C350.708 21.24 351.266 21.846 351.614 22.638L349.436 23.808C348.932 22.92 348.206 22.476 347.258 22.476C346.526 22.476 345.92 22.716 345.44 23.196C344.96 23.676 344.72 24.33 344.72 25.158C344.72 25.986 344.96 26.64 345.44 27.12C345.92 27.6 346.526 27.84 347.258 27.84C348.218 27.84 348.944 27.396 349.436 26.508L351.614 27.696C351.266 28.464 350.708 29.064 349.94 29.496C349.184 29.928 348.296 30.144 347.276 30.144ZM357.136 20.172C358.636 20.172 359.788 20.532 360.592 21.252C361.396 21.96 361.798 23.034 361.798 24.474V30H359.17V28.794C358.642 29.694 357.658 30.144 356.218 30.144C355.474 30.144 354.826 30.018 354.274 29.766C353.734 29.514 353.32 29.166 353.032 28.722C352.744 28.278 352.6 27.774 352.6 27.21C352.6 26.31 352.936 25.602 353.608 25.086C354.292 24.57 355.342 24.312 356.758 24.312H358.99C358.99 23.7 358.804 23.232 358.432 22.908C358.06 22.572 357.502 22.404 356.758 22.404C356.242 22.404 355.732 22.488 355.228 22.656C354.736 22.812 354.316 23.028 353.968 23.304L352.96 21.342C353.488 20.97 354.118 20.682 354.85 20.478C355.594 20.274 356.356 20.172 357.136 20.172ZM356.92 28.254C357.4 28.254 357.826 28.146 358.198 27.93C358.57 27.702 358.834 27.372 358.99 26.94V25.95H357.064C355.912 25.95 355.336 26.328 355.336 27.084C355.336 27.444 355.474 27.732 355.75 27.948C356.038 28.152 356.428 28.254 356.92 28.254ZM367.022 21.594C367.358 21.126 367.808 20.772 368.372 20.532C368.948 20.292 369.608 20.172 370.352 20.172V22.764C370.04 22.74 369.83 22.728 369.722 22.728C368.918 22.728 368.288 22.956 367.832 23.412C367.376 23.856 367.148 24.528 367.148 25.428V30H364.34V20.316H367.022V21.594ZM378.601 29.532C378.325 29.736 377.983 29.892 377.575 30C377.179 30.096 376.759 30.144 376.315 30.144C375.163 30.144 374.269 29.85 373.633 29.262C373.009 28.674 372.697 27.81 372.697 26.67V22.692H371.203V20.532H372.697V18.174H375.505V20.532H377.917V22.692H375.505V26.634C375.505 27.042 375.607 27.36 375.811 27.588C376.027 27.804 376.327 27.912 376.711 27.912C377.155 27.912 377.533 27.792 377.845 27.552L378.601 29.532Z" fill="white"/>
<g clip-path="url(#clip1_878_100468)">
<rect x="0.5" y="0.5" width="113" height="47" rx="2.5" fill="white" stroke="#C4C4C4"/>
<g clip-path="url(#clip2_878_100468)">
<path fill-rule="evenodd" clip-rule="evenodd" d="M90.5114 19.1128C90.4773 18.8609 90.2613 18.6667 90 18.6667C89.715 18.6667 89.4839 18.8978 89.4839 19.1829V23.4837H85.1828L85.1128 23.4884C84.8609 23.5226 84.6667 23.7385 84.6667 23.9998C84.6667 24.2849 84.8978 24.516 85.1828 24.516H89.4839V28.8173L89.4886 28.8873C89.5228 29.1392 89.7387 29.3334 90 29.3334C90.2851 29.3334 90.5161 29.1023 90.5161 28.8173V24.516H94.8172L94.8873 24.5112C95.1392 24.4771 95.3334 24.2611 95.3334 23.9998C95.3334 23.7148 95.1023 23.4837 94.8172 23.4837H90.5161V19.1829L90.5114 19.1128Z" fill="#212121"/>
<path d="M58.333 29H56.7266V22.5469C56.7266 21.7767 56.7448 21.166 56.7812 20.7148C56.6764 20.8242 56.5465 20.945 56.3916 21.0771C56.2412 21.2093 55.7308 21.6286 54.8604 22.335L54.0537 21.3164L56.9932 19.0059H58.333V29Z" fill="#212121"/>
<path fill-rule="evenodd" clip-rule="evenodd" d="M28.6666 23.5C28.9428 23.5 29.1666 23.7239 29.1666 24C29.1666 24.2531 28.9785 24.4623 28.7345 24.4954L28.6666 24.5H19.3333C19.0572 24.5 18.8333 24.2761 18.8333 24C18.8333 23.7469 19.0214 23.5377 19.2655 23.5046L19.3333 23.5H28.6666Z" fill="#212121"/>
</g>
</g>
</g>
<defs>
<clipPath id="clip0_878_100468">
<rect width="475" height="48" fill="white"/>
</clipPath>
<clipPath id="clip1_878_100468">
<rect width="114" height="48" fill="white"/>
</clipPath>
<clipPath id="clip2_878_100468">
<rect width="82" height="24" fill="white" transform="translate(16 12)"/>
</clipPath>
</defs>
</svg>
