<svg width="216" height="56" viewBox="0 0 216 56" fill="none" xmlns="http://www.w3.org/2000/svg">
<g clip-path="url(#clip0_878_100430)">
<path d="M77.8945 39.4492C77.8945 39.9961 77.7402 40.4434 77.4316 40.791C77.127 41.1387 76.6934 41.3711 76.1309 41.4883V41.5352C76.8184 41.6211 77.3281 41.8398 77.6602 42.1914C77.9922 42.543 78.1582 43.0039 78.1582 43.5742C78.1582 44.3906 77.875 45.0195 77.3086 45.4609C76.7422 45.8984 75.9375 46.1172 74.8945 46.1172C74.4414 46.1172 74.0254 46.082 73.6465 46.0117C73.2715 45.9453 72.9062 45.8262 72.5508 45.6543V44.7285C72.9219 44.9121 73.3164 45.0527 73.7344 45.1504C74.1562 45.2441 74.5547 45.291 74.9297 45.291C76.4102 45.291 77.1504 44.7109 77.1504 43.5508C77.1504 42.5117 76.334 41.9922 74.7012 41.9922H73.8574V41.1543H74.7129C75.3809 41.1543 75.9102 41.0078 76.3008 40.7148C76.6914 40.418 76.8867 40.0078 76.8867 39.4844C76.8867 39.0664 76.7422 38.7383 76.4531 38.5C76.168 38.2617 75.7793 38.1426 75.2871 38.1426C74.9121 38.1426 74.5586 38.1934 74.2266 38.2949C73.8945 38.3965 73.5156 38.584 73.0898 38.8574L72.5977 38.2012C72.9492 37.9238 73.3535 37.707 73.8105 37.5508C74.2715 37.3906 74.7559 37.3105 75.2637 37.3105C76.0957 37.3105 76.7422 37.502 77.2031 37.8848C77.6641 38.2637 77.8945 38.7852 77.8945 39.4492ZM87.3867 45.1387H87.334C86.8848 45.791 86.2129 46.1172 85.3184 46.1172C84.4785 46.1172 83.8242 45.8301 83.3555 45.2559C82.8906 44.6816 82.6582 43.8652 82.6582 42.8066C82.6582 41.748 82.8926 40.9258 83.3613 40.3398C83.8301 39.7539 84.4824 39.4609 85.3184 39.4609C86.1895 39.4609 86.8574 39.7773 87.3223 40.4102H87.3984L87.3574 39.9473L87.334 39.4961V36.8828H88.3066V46H87.5156L87.3867 45.1387ZM85.4414 45.3027C86.1055 45.3027 86.5859 45.123 86.8828 44.7637C87.1836 44.4004 87.334 43.8164 87.334 43.0117V42.8066C87.334 41.8965 87.1816 41.248 86.877 40.8613C86.5762 40.4707 86.0938 40.2754 85.4297 40.2754C84.8594 40.2754 84.4219 40.498 84.1172 40.9434C83.8164 41.3848 83.666 42.0098 83.666 42.8184C83.666 43.6387 83.8164 44.2578 84.1172 44.6758C84.418 45.0938 84.8594 45.3027 85.4414 45.3027ZM94.3242 46L94.1309 45.0859H94.084C93.7637 45.4883 93.4434 45.7617 93.123 45.9062C92.8066 46.0469 92.4102 46.1172 91.9336 46.1172C91.2969 46.1172 90.7969 45.9531 90.4336 45.625C90.0742 45.2969 89.8945 44.8301 89.8945 44.2246C89.8945 42.9277 90.9316 42.248 93.0059 42.1855L94.0957 42.1504V41.752C94.0957 41.248 93.9863 40.877 93.7676 40.6387C93.5527 40.3965 93.207 40.2754 92.7305 40.2754C92.1953 40.2754 91.5898 40.4395 90.9141 40.7676L90.6152 40.0234C90.9316 39.8516 91.2773 39.7168 91.6523 39.6191C92.0312 39.5215 92.4102 39.4727 92.7891 39.4727C93.5547 39.4727 94.1211 39.6426 94.4883 39.9824C94.8594 40.3223 95.0449 40.8672 95.0449 41.6172V46H94.3242ZM92.127 45.3145C92.7324 45.3145 93.207 45.1484 93.5508 44.8164C93.8984 44.4844 94.0723 44.0195 94.0723 43.4219V42.8418L93.0996 42.8828C92.3262 42.9102 91.7676 43.0312 91.4238 43.2461C91.084 43.457 90.9141 43.7871 90.9141 44.2363C90.9141 44.5879 91.0195 44.8555 91.2305 45.0391C91.4453 45.2227 91.7441 45.3145 92.127 45.3145ZM96.0352 39.5781H97.0781L98.4844 43.2402C98.793 44.0762 98.9844 44.6797 99.0586 45.0508H99.1055C99.1562 44.8516 99.2617 44.5117 99.4219 44.0312C99.5859 43.5469 100.117 42.0625 101.016 39.5781H102.059L99.2988 46.8906C99.0254 47.6133 98.7051 48.125 98.3379 48.4258C97.9746 48.7305 97.5273 48.8828 96.9961 48.8828C96.6992 48.8828 96.4062 48.8496 96.1172 48.7832V48.0039C96.332 48.0508 96.5723 48.0742 96.8379 48.0742C97.5059 48.0742 97.9824 47.6992 98.2676 46.9492L98.625 46.0352L96.0352 39.5781ZM107.244 44.248C107.244 44.8457 107.021 45.3066 106.576 45.6309C106.131 45.9551 105.506 46.1172 104.701 46.1172C103.85 46.1172 103.186 45.9824 102.709 45.7129V44.8105C103.018 44.9668 103.348 45.0898 103.699 45.1797C104.055 45.2695 104.396 45.3145 104.725 45.3145C105.232 45.3145 105.623 45.2344 105.896 45.0742C106.17 44.9102 106.307 44.6621 106.307 44.3301C106.307 44.0801 106.197 43.8672 105.979 43.6914C105.764 43.5117 105.342 43.3008 104.713 43.0586C104.115 42.8359 103.689 42.6426 103.436 42.4785C103.186 42.3105 102.998 42.1211 102.873 41.9102C102.752 41.6992 102.691 41.4473 102.691 41.1543C102.691 40.6309 102.904 40.2188 103.33 39.918C103.756 39.6133 104.34 39.4609 105.082 39.4609C105.773 39.4609 106.449 39.6016 107.109 39.8828L106.764 40.6738C106.119 40.4082 105.535 40.2754 105.012 40.2754C104.551 40.2754 104.203 40.3477 103.969 40.4922C103.734 40.6367 103.617 40.8359 103.617 41.0898C103.617 41.2617 103.66 41.4082 103.746 41.5293C103.836 41.6504 103.979 41.7656 104.174 41.875C104.369 41.9844 104.744 42.1426 105.299 42.3496C106.061 42.627 106.574 42.9062 106.84 43.1875C107.109 43.4688 107.244 43.8223 107.244 44.248ZM117.205 39.5781V40.1934L116.016 40.334C116.125 40.4707 116.223 40.6504 116.309 40.873C116.395 41.0918 116.438 41.3398 116.438 41.6172C116.438 42.2461 116.223 42.748 115.793 43.123C115.363 43.498 114.773 43.6855 114.023 43.6855C113.832 43.6855 113.652 43.6699 113.484 43.6387C113.07 43.8574 112.863 44.1328 112.863 44.4648C112.863 44.6406 112.936 44.7715 113.08 44.8574C113.225 44.9395 113.473 44.9805 113.824 44.9805H114.961C115.656 44.9805 116.189 45.127 116.561 45.4199C116.936 45.7129 117.123 46.1387 117.123 46.6973C117.123 47.4082 116.838 47.9492 116.268 48.3203C115.697 48.6953 114.865 48.8828 113.771 48.8828C112.932 48.8828 112.283 48.7266 111.826 48.4141C111.373 48.1016 111.146 47.6602 111.146 47.0898C111.146 46.6992 111.271 46.3613 111.521 46.0762C111.771 45.791 112.123 45.5977 112.576 45.4961C112.412 45.4219 112.273 45.3066 112.16 45.1504C112.051 44.9941 111.996 44.8125 111.996 44.6055C111.996 44.3711 112.059 44.166 112.184 43.9902C112.309 43.8145 112.506 43.6445 112.775 43.4805C112.443 43.3438 112.172 43.1113 111.961 42.7832C111.754 42.4551 111.65 42.0801 111.65 41.6582C111.65 40.9551 111.861 40.4141 112.283 40.0352C112.705 39.6523 113.303 39.4609 114.076 39.4609C114.412 39.4609 114.715 39.5 114.984 39.5781H117.205ZM112.084 47.0781C112.084 47.4258 112.23 47.6895 112.523 47.8691C112.816 48.0488 113.236 48.1387 113.783 48.1387C114.6 48.1387 115.203 48.0156 115.594 47.7695C115.988 47.5273 116.186 47.1973 116.186 46.7793C116.186 46.4316 116.078 46.1895 115.863 46.0527C115.648 45.9199 115.244 45.8535 114.65 45.8535H113.484C113.043 45.8535 112.699 45.959 112.453 46.1699C112.207 46.3809 112.084 46.6836 112.084 47.0781ZM112.611 41.6348C112.611 42.084 112.738 42.4238 112.992 42.6543C113.246 42.8848 113.6 43 114.053 43C115.002 43 115.477 42.5391 115.477 41.6172C115.477 40.6523 114.996 40.1699 114.035 40.1699C113.578 40.1699 113.227 40.293 112.98 40.5391C112.734 40.7852 112.611 41.1504 112.611 41.6348ZM119.438 39.5781V43.7441C119.438 44.2676 119.557 44.6582 119.795 44.916C120.033 45.1738 120.406 45.3027 120.914 45.3027C121.586 45.3027 122.076 45.1191 122.385 44.752C122.697 44.3848 122.854 43.7852 122.854 42.9531V39.5781H123.826V46H123.023L122.883 45.1387H122.83C122.631 45.4551 122.354 45.6973 121.998 45.8652C121.646 46.0332 121.244 46.1172 120.791 46.1172C120.01 46.1172 119.424 45.9316 119.033 45.5605C118.646 45.1895 118.453 44.5957 118.453 43.7793V39.5781H119.438ZM128.824 39.4609C129.109 39.4609 129.365 39.4844 129.592 39.5312L129.457 40.4336C129.191 40.375 128.957 40.3457 128.754 40.3457C128.234 40.3457 127.789 40.5566 127.418 40.9785C127.051 41.4004 126.867 41.9258 126.867 42.5547V46H125.895V39.5781H126.697L126.809 40.7676H126.855C127.094 40.3496 127.381 40.0273 127.717 39.8008C128.053 39.5742 128.422 39.4609 128.824 39.4609ZM134.742 46L134.549 45.0859H134.502C134.182 45.4883 133.861 45.7617 133.541 45.9062C133.225 46.0469 132.828 46.1172 132.352 46.1172C131.715 46.1172 131.215 45.9531 130.852 45.625C130.492 45.2969 130.312 44.8301 130.312 44.2246C130.312 42.9277 131.35 42.248 133.424 42.1855L134.514 42.1504V41.752C134.514 41.248 134.404 40.877 134.186 40.6387C133.971 40.3965 133.625 40.2754 133.148 40.2754C132.613 40.2754 132.008 40.4395 131.332 40.7676L131.033 40.0234C131.35 39.8516 131.695 39.7168 132.07 39.6191C132.449 39.5215 132.828 39.4727 133.207 39.4727C133.973 39.4727 134.539 39.6426 134.906 39.9824C135.277 40.3223 135.463 40.8672 135.463 41.6172V46H134.742ZM132.545 45.3145C133.15 45.3145 133.625 45.1484 133.969 44.8164C134.316 44.4844 134.49 44.0195 134.49 43.4219V42.8418L133.518 42.8828C132.744 42.9102 132.186 43.0312 131.842 43.2461C131.502 43.457 131.332 43.7871 131.332 44.2363C131.332 44.5879 131.438 44.8555 131.648 45.0391C131.863 45.2227 132.162 45.3145 132.545 45.3145ZM141.867 46V41.8457C141.867 41.3223 141.748 40.9316 141.51 40.6738C141.271 40.416 140.898 40.2871 140.391 40.2871C139.719 40.2871 139.227 40.4688 138.914 40.832C138.602 41.1953 138.445 41.7949 138.445 42.6309V46H137.473V39.5781H138.264L138.422 40.457H138.469C138.668 40.1406 138.947 39.8965 139.307 39.7246C139.666 39.5488 140.066 39.4609 140.508 39.4609C141.281 39.4609 141.863 39.6484 142.254 40.0234C142.645 40.3945 142.84 40.9902 142.84 41.8105V46H141.867ZM146.918 45.3145C147.09 45.3145 147.256 45.3027 147.416 45.2793C147.576 45.252 147.703 45.2246 147.797 45.1973V45.9414C147.691 45.9922 147.535 46.0332 147.328 46.0645C147.125 46.0996 146.941 46.1172 146.777 46.1172C145.535 46.1172 144.914 45.4629 144.914 44.1543V40.334H143.994V39.8652L144.914 39.4609L145.324 38.0898H145.887V39.5781H147.75V40.334H145.887V44.1133C145.887 44.5 145.979 44.7969 146.162 45.0039C146.346 45.2109 146.598 45.3145 146.918 45.3145ZM151.799 46.1172C150.85 46.1172 150.1 45.8281 149.549 45.25C149.002 44.6719 148.729 43.8691 148.729 42.8418C148.729 41.8066 148.982 40.9844 149.49 40.375C150.002 39.7656 150.688 39.4609 151.547 39.4609C152.352 39.4609 152.988 39.7266 153.457 40.2578C153.926 40.7852 154.16 41.4824 154.16 42.3496V42.9648H149.736C149.756 43.7188 149.945 44.291 150.305 44.6816C150.668 45.0723 151.178 45.2676 151.834 45.2676C152.525 45.2676 153.209 45.123 153.885 44.834V45.7012C153.541 45.8496 153.215 45.9551 152.906 46.0176C152.602 46.084 152.232 46.1172 151.799 46.1172ZM151.535 40.2754C151.02 40.2754 150.607 40.4434 150.299 40.7793C149.994 41.1152 149.814 41.5801 149.76 42.1738H153.117C153.117 41.5605 152.98 41.0918 152.707 40.7676C152.434 40.4395 152.043 40.2754 151.535 40.2754ZM158.537 46.1172C157.588 46.1172 156.838 45.8281 156.287 45.25C155.74 44.6719 155.467 43.8691 155.467 42.8418C155.467 41.8066 155.721 40.9844 156.229 40.375C156.74 39.7656 157.426 39.4609 158.285 39.4609C159.09 39.4609 159.727 39.7266 160.195 40.2578C160.664 40.7852 160.898 41.4824 160.898 42.3496V42.9648H156.475C156.494 43.7188 156.684 44.291 157.043 44.6816C157.406 45.0723 157.916 45.2676 158.572 45.2676C159.264 45.2676 159.947 45.123 160.623 44.834V45.7012C160.279 45.8496 159.953 45.9551 159.645 46.0176C159.34 46.084 158.971 46.1172 158.537 46.1172ZM158.273 40.2754C157.758 40.2754 157.346 40.4434 157.037 40.7793C156.732 41.1152 156.553 41.5801 156.498 42.1738H159.855C159.855 41.5605 159.719 41.0918 159.445 40.7676C159.172 40.4395 158.781 40.2754 158.273 40.2754ZM166.934 45.1387H166.881C166.432 45.791 165.76 46.1172 164.865 46.1172C164.025 46.1172 163.371 45.8301 162.902 45.2559C162.438 44.6816 162.205 43.8652 162.205 42.8066C162.205 41.748 162.439 40.9258 162.908 40.3398C163.377 39.7539 164.029 39.4609 164.865 39.4609C165.736 39.4609 166.404 39.7773 166.869 40.4102H166.945L166.904 39.9473L166.881 39.4961V36.8828H167.854V46H167.062L166.934 45.1387ZM164.988 45.3027C165.652 45.3027 166.133 45.123 166.43 44.7637C166.73 44.4004 166.881 43.8164 166.881 43.0117V42.8066C166.881 41.8965 166.729 41.248 166.424 40.8613C166.123 40.4707 165.641 40.2754 164.977 40.2754C164.406 40.2754 163.969 40.498 163.664 40.9434C163.363 41.3848 163.213 42.0098 163.213 42.8184C163.213 43.6387 163.363 44.2578 163.664 44.6758C163.965 45.0938 164.406 45.3027 164.988 45.3027ZM177.41 45.1387H177.357C176.908 45.791 176.236 46.1172 175.342 46.1172C174.502 46.1172 173.848 45.8301 173.379 45.2559C172.914 44.6816 172.682 43.8652 172.682 42.8066C172.682 41.748 172.916 40.9258 173.385 40.3398C173.854 39.7539 174.506 39.4609 175.342 39.4609C176.213 39.4609 176.881 39.7773 177.346 40.4102H177.422L177.381 39.9473L177.357 39.4961V36.8828H178.33V46H177.539L177.41 45.1387ZM175.465 45.3027C176.129 45.3027 176.609 45.123 176.906 44.7637C177.207 44.4004 177.357 43.8164 177.357 43.0117V42.8066C177.357 41.8965 177.205 41.248 176.9 40.8613C176.6 40.4707 176.117 40.2754 175.453 40.2754C174.883 40.2754 174.445 40.498 174.141 40.9434C173.84 41.3848 173.689 42.0098 173.689 42.8184C173.689 43.6387 173.84 44.2578 174.141 44.6758C174.441 45.0938 174.883 45.3027 175.465 45.3027ZM183.111 46.1172C182.162 46.1172 181.412 45.8281 180.861 45.25C180.314 44.6719 180.041 43.8691 180.041 42.8418C180.041 41.8066 180.295 40.9844 180.803 40.375C181.314 39.7656 182 39.4609 182.859 39.4609C183.664 39.4609 184.301 39.7266 184.77 40.2578C185.238 40.7852 185.473 41.4824 185.473 42.3496V42.9648H181.049C181.068 43.7188 181.258 44.291 181.617 44.6816C181.98 45.0723 182.49 45.2676 183.146 45.2676C183.838 45.2676 184.521 45.123 185.197 44.834V45.7012C184.854 45.8496 184.527 45.9551 184.219 46.0176C183.914 46.084 183.545 46.1172 183.111 46.1172ZM182.848 40.2754C182.332 40.2754 181.92 40.4434 181.611 40.7793C181.307 41.1152 181.127 41.5801 181.072 42.1738H184.43C184.43 41.5605 184.293 41.0918 184.02 40.7676C183.746 40.4395 183.355 40.2754 182.848 40.2754ZM188.109 46H187.137V36.8828H188.109V46ZM191.145 46H190.172V39.5781H191.145V46ZM190.09 37.8379C190.09 37.6152 190.145 37.4531 190.254 37.3516C190.363 37.2461 190.5 37.1934 190.664 37.1934C190.82 37.1934 190.955 37.2461 191.068 37.3516C191.182 37.457 191.238 37.6191 191.238 37.8379C191.238 38.0566 191.182 38.2207 191.068 38.3301C190.955 38.4355 190.82 38.4883 190.664 38.4883C190.5 38.4883 190.363 38.4355 190.254 38.3301C190.145 38.2207 190.09 38.0566 190.09 37.8379ZM194.613 46L192.176 39.5781H193.219L194.602 43.3867C194.914 44.2773 195.098 44.8555 195.152 45.1211H195.199C195.242 44.9141 195.377 44.4863 195.604 43.8379C195.834 43.1855 196.348 41.7656 197.145 39.5781H198.188L195.75 46H194.613ZM201.932 46.1172C200.982 46.1172 200.232 45.8281 199.682 45.25C199.135 44.6719 198.861 43.8691 198.861 42.8418C198.861 41.8066 199.115 40.9844 199.623 40.375C200.135 39.7656 200.82 39.4609 201.68 39.4609C202.484 39.4609 203.121 39.7266 203.59 40.2578C204.059 40.7852 204.293 41.4824 204.293 42.3496V42.9648H199.869C199.889 43.7188 200.078 44.291 200.438 44.6816C200.801 45.0723 201.311 45.2676 201.967 45.2676C202.658 45.2676 203.342 45.123 204.018 44.834V45.7012C203.674 45.8496 203.348 45.9551 203.039 46.0176C202.734 46.084 202.365 46.1172 201.932 46.1172ZM201.668 40.2754C201.152 40.2754 200.74 40.4434 200.432 40.7793C200.127 41.1152 199.947 41.5801 199.893 42.1738H203.25C203.25 41.5605 203.113 41.0918 202.84 40.7676C202.566 40.4395 202.176 40.2754 201.668 40.2754ZM208.887 39.4609C209.172 39.4609 209.428 39.4844 209.654 39.5312L209.52 40.4336C209.254 40.375 209.02 40.3457 208.816 40.3457C208.297 40.3457 207.852 40.5566 207.48 40.9785C207.113 41.4004 206.93 41.9258 206.93 42.5547V46H205.957V39.5781H206.76L206.871 40.7676H206.918C207.156 40.3496 207.443 40.0273 207.779 39.8008C208.115 39.5742 208.484 39.4609 208.887 39.4609ZM209.836 39.5781H210.879L212.285 43.2402C212.594 44.0762 212.785 44.6797 212.859 45.0508H212.906C212.957 44.8516 213.062 44.5117 213.223 44.0312C213.387 43.5469 213.918 42.0625 214.816 39.5781H215.859L213.1 46.8906C212.826 47.6133 212.506 48.125 212.139 48.4258C211.775 48.7305 211.328 48.8828 210.797 48.8828C210.5 48.8828 210.207 48.8496 209.918 48.7832V48.0039C210.133 48.0508 210.373 48.0742 210.639 48.0742C211.307 48.0742 211.783 47.6992 212.068 46.9492L212.426 46.0352L209.836 39.5781Z" fill="#807E7E"/>
<path d="M75.3594 23H73.5078V11.5781H79.9531V13.1562H75.3594V16.7266H79.6641V18.3125H75.3594V23ZM87.2344 23L86.8672 21.7969H86.8047C86.388 22.3229 85.9688 22.6823 85.5469 22.875C85.125 23.0625 84.5833 23.1562 83.9219 23.1562C83.0729 23.1562 82.4089 22.9271 81.9297 22.4688C81.4557 22.0104 81.2188 21.362 81.2188 20.5234C81.2188 19.6328 81.5495 18.9609 82.2109 18.5078C82.8724 18.0547 83.8802 17.8073 85.2344 17.7656L86.7266 17.7188V17.2578C86.7266 16.7057 86.5964 16.2943 86.3359 16.0234C86.0807 15.7474 85.6823 15.6094 85.1406 15.6094C84.6979 15.6094 84.2734 15.6745 83.8672 15.8047C83.4609 15.9349 83.0703 16.0885 82.6953 16.2656L82.1016 14.9531C82.5703 14.7083 83.0833 14.5234 83.6406 14.3984C84.1979 14.2682 84.724 14.2031 85.2188 14.2031C86.3177 14.2031 87.1458 14.4427 87.7031 14.9219C88.2656 15.401 88.5469 16.1536 88.5469 17.1797V23H87.2344ZM84.5 21.75C85.1667 21.75 85.7005 21.5651 86.1016 21.1953C86.5078 20.8203 86.7109 20.2969 86.7109 19.625V18.875L85.6016 18.9219C84.737 18.9531 84.1068 19.099 83.7109 19.3594C83.3203 19.6146 83.125 20.0078 83.125 20.5391C83.125 20.9245 83.2396 21.224 83.4688 21.4375C83.6979 21.6458 84.0417 21.75 84.5 21.75ZM96.9141 20.5391C96.9141 21.3828 96.6068 22.0312 95.9922 22.4844C95.3776 22.9323 94.4974 23.1562 93.3516 23.1562C92.2005 23.1562 91.276 22.9818 90.5781 22.6328V21.0469C91.5938 21.5156 92.5391 21.75 93.4141 21.75C94.5443 21.75 95.1094 21.4089 95.1094 20.7266C95.1094 20.5078 95.0469 20.3255 94.9219 20.1797C94.7969 20.0339 94.5911 19.8828 94.3047 19.7266C94.0182 19.5703 93.6198 19.3932 93.1094 19.1953C92.1146 18.8099 91.4401 18.4245 91.0859 18.0391C90.737 17.6536 90.5625 17.1536 90.5625 16.5391C90.5625 15.7995 90.8594 15.2266 91.4531 14.8203C92.0521 14.4089 92.8646 14.2031 93.8906 14.2031C94.9062 14.2031 95.8672 14.4089 96.7734 14.8203L96.1797 16.2031C95.2474 15.8177 94.4635 15.625 93.8281 15.625C92.8594 15.625 92.375 15.901 92.375 16.4531C92.375 16.724 92.5 16.9531 92.75 17.1406C93.0052 17.3281 93.5573 17.5859 94.4062 17.9141C95.1198 18.1901 95.638 18.4427 95.9609 18.6719C96.2839 18.901 96.5234 19.1667 96.6797 19.4688C96.8359 19.7656 96.9141 20.1224 96.9141 20.5391ZM102.125 21.6719C102.573 21.6719 103.021 21.6016 103.469 21.4609V22.8438C103.266 22.9323 103.003 23.0052 102.68 23.0625C102.362 23.125 102.031 23.1562 101.688 23.1562C99.9479 23.1562 99.0781 22.2396 99.0781 20.4062V15.75H97.8984V14.9375L99.1641 14.2656L99.7891 12.4375H100.922V14.3594H103.383V15.75H100.922V20.375C100.922 20.8177 101.031 21.1458 101.25 21.3594C101.474 21.5677 101.766 21.6719 102.125 21.6719ZM116.141 19.8984C116.141 20.9141 115.773 21.7109 115.039 22.2891C114.305 22.8672 113.292 23.1562 112 23.1562C110.708 23.1562 109.651 22.9557 108.828 22.5547V20.7891C109.349 21.0339 109.901 21.2266 110.484 21.3672C111.073 21.5078 111.62 21.5781 112.125 21.5781C112.865 21.5781 113.409 21.4375 113.758 21.1562C114.112 20.875 114.289 20.4974 114.289 20.0234C114.289 19.5964 114.128 19.2344 113.805 18.9375C113.482 18.6406 112.815 18.2891 111.805 17.8828C110.763 17.4609 110.029 16.9792 109.602 16.4375C109.174 15.8958 108.961 15.2448 108.961 14.4844C108.961 13.5312 109.299 12.7812 109.977 12.2344C110.654 11.6875 111.562 11.4141 112.703 11.4141C113.797 11.4141 114.885 11.6536 115.969 12.1328L115.375 13.6562C114.359 13.2292 113.453 13.0156 112.656 13.0156C112.052 13.0156 111.594 13.1484 111.281 13.4141C110.969 13.6745 110.812 14.0208 110.812 14.4531C110.812 14.75 110.875 15.0052 111 15.2188C111.125 15.4271 111.331 15.625 111.617 15.8125C111.904 16 112.419 16.2474 113.164 16.5547C114.003 16.9036 114.617 17.2292 115.008 17.5312C115.398 17.8333 115.685 18.1745 115.867 18.5547C116.049 18.9349 116.141 19.3828 116.141 19.8984ZM125.758 23H123.914V17.6875C123.914 17.0208 123.779 16.5234 123.508 16.1953C123.242 15.8672 122.818 15.7031 122.234 15.7031C121.464 15.7031 120.896 15.9349 120.531 16.3984C120.172 16.8568 119.992 17.6276 119.992 18.7109V23H118.156V10.8438H119.992V13.9297C119.992 14.4245 119.961 14.9531 119.898 15.5156H120.016C120.266 15.099 120.612 14.776 121.055 14.5469C121.503 14.3177 122.023 14.2031 122.617 14.2031C124.711 14.2031 125.758 15.2578 125.758 17.3672V23ZM130.148 23H128.312V14.3594H130.148V23ZM128.203 12.0703C128.203 11.7422 128.292 11.4896 128.469 11.3125C128.651 11.1354 128.909 11.0469 129.242 11.0469C129.565 11.0469 129.815 11.1354 129.992 11.3125C130.174 11.4896 130.266 11.7422 130.266 12.0703C130.266 12.3828 130.174 12.6302 129.992 12.8125C129.815 12.9896 129.565 13.0781 129.242 13.0781C128.909 13.0781 128.651 12.9896 128.469 12.8125C128.292 12.6302 128.203 12.3828 128.203 12.0703ZM137.164 23.1562C136.07 23.1562 135.221 22.763 134.617 21.9766H134.508C134.581 22.7057 134.617 23.1484 134.617 23.3047V26.8438H132.781V14.3594H134.266C134.307 14.5208 134.393 14.9062 134.523 15.5156H134.617C135.19 14.6406 136.049 14.2031 137.195 14.2031C138.273 14.2031 139.112 14.5938 139.711 15.375C140.315 16.1562 140.617 17.2526 140.617 18.6641C140.617 20.0755 140.31 21.1771 139.695 21.9688C139.086 22.7604 138.242 23.1562 137.164 23.1562ZM136.719 15.7031C135.99 15.7031 135.456 15.9167 135.117 16.3438C134.784 16.7708 134.617 17.4531 134.617 18.3906V18.6641C134.617 19.7161 134.784 20.4792 135.117 20.9531C135.451 21.4219 135.995 21.6562 136.75 21.6562C137.385 21.6562 137.875 21.3958 138.219 20.875C138.562 20.3542 138.734 19.612 138.734 18.6484C138.734 17.6797 138.562 16.9479 138.219 16.4531C137.88 15.9531 137.38 15.7031 136.719 15.7031ZM147.133 23.1562C146.039 23.1562 145.19 22.763 144.586 21.9766H144.477C144.549 22.7057 144.586 23.1484 144.586 23.3047V26.8438H142.75V14.3594H144.234C144.276 14.5208 144.362 14.9062 144.492 15.5156H144.586C145.159 14.6406 146.018 14.2031 147.164 14.2031C148.242 14.2031 149.081 14.5938 149.68 15.375C150.284 16.1562 150.586 17.2526 150.586 18.6641C150.586 20.0755 150.279 21.1771 149.664 21.9688C149.055 22.7604 148.211 23.1562 147.133 23.1562ZM146.688 15.7031C145.958 15.7031 145.424 15.9167 145.086 16.3438C144.753 16.7708 144.586 17.4531 144.586 18.3906V18.6641C144.586 19.7161 144.753 20.4792 145.086 20.9531C145.419 21.4219 145.964 21.6562 146.719 21.6562C147.354 21.6562 147.844 21.3958 148.188 20.875C148.531 20.3542 148.703 19.612 148.703 18.6484C148.703 17.6797 148.531 16.9479 148.188 16.4531C147.849 15.9531 147.349 15.7031 146.688 15.7031ZM154.555 23H152.719V14.3594H154.555V23ZM152.609 12.0703C152.609 11.7422 152.698 11.4896 152.875 11.3125C153.057 11.1354 153.315 11.0469 153.648 11.0469C153.971 11.0469 154.221 11.1354 154.398 11.3125C154.581 11.4896 154.672 11.7422 154.672 12.0703C154.672 12.3828 154.581 12.6302 154.398 12.8125C154.221 12.9896 153.971 13.0781 153.648 13.0781C153.315 13.0781 153.057 12.9896 152.875 12.8125C152.698 12.6302 152.609 12.3828 152.609 12.0703ZM164.789 23H162.945V17.6875C162.945 17.0208 162.81 16.5234 162.539 16.1953C162.273 15.8672 161.849 15.7031 161.266 15.7031C160.49 15.7031 159.922 15.9323 159.562 16.3906C159.203 16.849 159.023 17.6172 159.023 18.6953V23H157.188V14.3594H158.625L158.883 15.4922H158.977C159.237 15.0807 159.607 14.763 160.086 14.5391C160.565 14.3151 161.096 14.2031 161.68 14.2031C163.753 14.2031 164.789 15.2578 164.789 17.3672V23ZM174.641 14.3594V15.3672L173.164 15.6406C173.299 15.8229 173.411 16.0469 173.5 16.3125C173.589 16.5781 173.633 16.8594 173.633 17.1562C173.633 18.0469 173.326 18.7474 172.711 19.2578C172.096 19.7682 171.25 20.0234 170.172 20.0234C169.896 20.0234 169.646 20.0026 169.422 19.9609C169.026 20.2057 168.828 20.4922 168.828 20.8203C168.828 21.0182 168.919 21.1667 169.102 21.2656C169.289 21.3646 169.63 21.4141 170.125 21.4141H171.633C172.586 21.4141 173.31 21.6172 173.805 22.0234C174.299 22.4297 174.547 23.0156 174.547 23.7812C174.547 24.7604 174.143 25.5156 173.336 26.0469C172.529 26.5781 171.362 26.8438 169.836 26.8438C168.659 26.8438 167.76 26.6354 167.141 26.2188C166.521 25.8021 166.211 25.2083 166.211 24.4375C166.211 23.9062 166.378 23.4583 166.711 23.0938C167.049 22.7344 167.521 22.4844 168.125 22.3438C167.88 22.2396 167.677 22.0729 167.516 21.8438C167.359 21.6094 167.281 21.3646 167.281 21.1094C167.281 20.7865 167.372 20.513 167.555 20.2891C167.737 20.0651 168.008 19.8438 168.367 19.625C167.919 19.4323 167.555 19.1198 167.273 18.6875C166.997 18.25 166.859 17.7396 166.859 17.1562C166.859 16.2188 167.154 15.4922 167.742 14.9766C168.336 14.4609 169.18 14.2031 170.273 14.2031C170.518 14.2031 170.773 14.2214 171.039 14.2578C171.31 14.2891 171.513 14.3229 171.648 14.3594H174.641ZM167.852 24.3438C167.852 24.7396 168.029 25.0443 168.383 25.2578C168.742 25.4714 169.245 25.5781 169.891 25.5781C170.891 25.5781 171.635 25.4349 172.125 25.1484C172.615 24.862 172.859 24.4818 172.859 24.0078C172.859 23.6328 172.724 23.3646 172.453 23.2031C172.188 23.0469 171.69 22.9688 170.961 22.9688H169.57C169.044 22.9688 168.625 23.0911 168.312 23.3359C168.005 23.5859 167.852 23.9219 167.852 24.3438ZM168.641 17.1562C168.641 17.6979 168.779 18.1146 169.055 18.4062C169.336 18.6979 169.737 18.8438 170.258 18.8438C171.32 18.8438 171.852 18.276 171.852 17.1406C171.852 16.5781 171.719 16.1458 171.453 15.8438C171.193 15.5365 170.794 15.3828 170.258 15.3828C169.727 15.3828 169.323 15.5339 169.047 15.8359C168.776 16.138 168.641 16.5781 168.641 17.1562Z" fill="#212121"/>
<path fill-rule="evenodd" clip-rule="evenodd" d="M32.6667 12.25C33.1097 12.25 33.5327 12.4178 33.8536 12.714L34.0332 12.9068L42.84 23.9167H44.3333C47.7459 23.9167 50.5363 26.5806 50.7383 29.9424L50.75 30.3333V39.6667C50.75 40.5526 50.0916 41.2848 49.2375 41.4007L49 41.4167H45.8418C45.0801 44.1099 42.6038 46.0833 39.6667 46.0833C36.7295 46.0833 34.2533 44.1099 33.4915 41.4167H22.5085C21.7467 44.1099 19.2705 46.0833 16.3333 46.0833C13.3962 46.0833 10.92 44.1099 10.1582 41.4167H7C6.11404 41.4167 5.38185 40.7583 5.26598 39.9041L5.25 39.6667V25.6667C5.25 25.5393 5.26361 25.4151 5.28946 25.2954L5.34511 25.0967L10.0418 13.3501C10.2781 12.7595 10.8127 12.3496 11.4312 12.2659L11.6667 12.25H32.6667ZM10.1582 37.9167H8.75V27.4167H44.3333L44.6315 27.4317C46.1023 27.5811 47.25 28.8232 47.25 30.3333V37.9167H45.8418C45.08 35.2234 42.6038 33.25 39.6667 33.25C36.7295 33.25 34.2533 35.2234 33.4915 37.9167H22.5085C21.7467 35.2234 19.2705 33.25 16.3333 33.25C13.3962 33.25 10.92 35.2234 10.1582 37.9167ZM13.4167 39.6667C13.4167 41.2775 14.7225 42.5833 16.3333 42.5833C17.9442 42.5833 19.25 41.2775 19.25 39.6667C19.25 38.0558 17.9442 36.75 16.3333 36.75C14.7225 36.75 13.4167 38.0558 13.4167 39.6667ZM42.5833 39.6696C42.5833 39.6686 42.5833 39.6676 42.5833 39.6667C42.5833 38.0558 41.2775 36.75 39.6667 36.75C38.0558 36.75 36.75 38.0558 36.75 39.6667C36.75 41.2775 38.0558 42.5833 39.6667 42.5833C41.2765 42.5833 42.5818 41.2791 42.5833 39.6696ZM12.8497 15.75H26.25V23.9167H9.58299L12.8497 15.75ZM31.8267 15.75H29.75V23.9167H38.36L31.8267 15.75Z" fill="#212121"/>
</g>
<defs>
<clipPath id="clip0_878_100430">
<rect width="216" height="56" fill="white"/>
</clipPath>
</defs>
</svg>
