<svg width="80" height="80" viewBox="0 0 80 80" fill="none" xmlns="http://www.w3.org/2000/svg">
<g filter="url(#filter0_d_921_102282)">
<rect x="16" y="4" width="48" height="48" rx="3" fill="white"/>
<path fill-rule="evenodd" clip-rule="evenodd" d="M40 33.6666C36.7942 33.6666 34.0219 31.8779 31.702 27.9999C34.0219 24.122 36.7942 22.3333 40 22.3333C43.2058 22.3333 45.9781 24.122 48.2979 27.9999C45.9781 31.8779 43.2058 33.6666 40 33.6666ZM40 20.8333C35.9733 20.8333 32.7082 23.2074 30.1821 27.6278C30.0504 27.8584 30.0504 28.1415 30.1821 28.372C32.7082 32.7924 35.9733 35.1666 40 35.1666C44.0267 35.1666 47.2917 32.7924 49.8178 28.372C49.9496 28.1415 49.9496 27.8584 49.8178 27.6278C47.2917 23.2074 44.0267 20.8333 40 20.8333ZM38.9166 27.9999C38.9166 27.4016 39.4017 26.9166 40 26.9166C40.5983 26.9166 41.0833 27.4016 41.0833 27.9999C41.0833 28.5982 40.5983 29.0833 40 29.0833C39.4017 29.0833 38.9166 28.5982 38.9166 27.9999ZM40 25.4166C38.5732 25.4166 37.4166 26.5732 37.4166 27.9999C37.4166 29.4267 38.5732 30.5833 40 30.5833C41.4267 30.5833 42.5833 29.4267 42.5833 27.9999C42.5833 26.5732 41.4267 25.4166 40 25.4166Z" fill="#212121"/>
</g>
<defs>
<filter id="filter0_d_921_102282" x="0" y="0" width="80" height="80" filterUnits="userSpaceOnUse" color-interpolation-filters="sRGB">
<feFlood flood-opacity="0" result="BackgroundImageFix"/>
<feColorMatrix in="SourceAlpha" type="matrix" values="0 0 0 0 0 0 0 0 0 0 0 0 0 0 0 0 0 0 127 0" result="hardAlpha"/>
<feOffset dy="12"/>
<feGaussianBlur stdDeviation="8"/>
<feColorMatrix type="matrix" values="0 0 0 0 0.156863 0 0 0 0 0.160784 0 0 0 0 0.239216 0 0 0 0.0364 0"/>
<feBlend mode="normal" in2="BackgroundImageFix" result="effect1_dropShadow_921_102282"/>
<feBlend mode="normal" in="SourceGraphic" in2="effect1_dropShadow_921_102282" result="shape"/>
</filter>
</defs>
</svg>
