<svg width="217" height="56" viewBox="0 0 217 56" fill="none" xmlns="http://www.w3.org/2000/svg">
<path d="M63.9688 45L61.0625 37.4062H61.0156C61.0703 38.0078 61.0977 38.7227 61.0977 39.5508V45H60.1777V36.4336H61.6777L64.3906 43.5H64.4375L67.1738 36.4336H68.6621V45H67.666V39.4805C67.666 38.8477 67.6934 38.1602 67.748 37.418H67.7012L64.7715 45H63.9688ZM76.4141 41.7832C76.4141 42.8301 76.1504 43.6484 75.623 44.2383C75.0957 44.8242 74.3672 45.1172 73.4375 45.1172C72.8633 45.1172 72.3535 44.9824 71.9082 44.7129C71.4629 44.4434 71.1191 44.0566 70.877 43.5527C70.6348 43.0488 70.5137 42.459 70.5137 41.7832C70.5137 40.7363 70.7754 39.9219 71.2988 39.3398C71.8223 38.7539 72.5488 38.4609 73.4785 38.4609C74.377 38.4609 75.0898 38.7598 75.6172 39.3574C76.1484 39.9551 76.4141 40.7637 76.4141 41.7832ZM71.5215 41.7832C71.5215 42.6035 71.6855 43.2285 72.0137 43.6582C72.3418 44.0879 72.8242 44.3027 73.4609 44.3027C74.0977 44.3027 74.5801 44.0898 74.9082 43.6641C75.2402 43.2344 75.4062 42.6074 75.4062 41.7832C75.4062 40.9668 75.2402 40.3477 74.9082 39.9258C74.5801 39.5 74.0938 39.2871 73.4492 39.2871C72.8125 39.2871 72.332 39.4961 72.0078 39.9141C71.6836 40.332 71.5215 40.9551 71.5215 41.7832ZM82.5195 45V40.8457C82.5195 40.3223 82.4004 39.9316 82.1621 39.6738C81.9238 39.416 81.5508 39.2871 81.043 39.2871C80.3711 39.2871 79.8789 39.4688 79.5664 39.832C79.2539 40.1953 79.0977 40.7949 79.0977 41.6309V45H78.125V38.5781H78.916L79.0742 39.457H79.1211C79.3203 39.1406 79.5996 38.8965 79.959 38.7246C80.3184 38.5488 80.7188 38.4609 81.1602 38.4609C81.9336 38.4609 82.5156 38.6484 82.9062 39.0234C83.2969 39.3945 83.4922 39.9902 83.4922 40.8105V45H82.5195ZM87.5703 44.3145C87.7422 44.3145 87.9082 44.3027 88.0684 44.2793C88.2285 44.252 88.3555 44.2246 88.4492 44.1973V44.9414C88.3438 44.9922 88.1875 45.0332 87.9805 45.0645C87.7773 45.0996 87.5938 45.1172 87.4297 45.1172C86.1875 45.1172 85.5664 44.4629 85.5664 43.1543V39.334H84.6465V38.8652L85.5664 38.4609L85.9766 37.0898H86.5391V38.5781H88.4023V39.334H86.5391V43.1133C86.5391 43.5 86.6309 43.7969 86.8145 44.0039C86.998 44.2109 87.25 44.3145 87.5703 44.3145ZM94.1328 45V40.8457C94.1328 40.3223 94.0137 39.9316 93.7754 39.6738C93.5371 39.416 93.1641 39.2871 92.6562 39.2871C91.9805 39.2871 91.4863 39.4707 91.1738 39.8379C90.8652 40.2051 90.7109 40.8066 90.7109 41.6426V45H89.7383V35.8828H90.7109V38.6426C90.7109 38.9746 90.6953 39.25 90.6641 39.4688H90.7227C90.9141 39.1602 91.1855 38.918 91.5371 38.7422C91.8926 38.5625 92.2969 38.4727 92.75 38.4727C93.5352 38.4727 94.123 38.6602 94.5137 39.0352C94.9082 39.4062 95.1055 39.998 95.1055 40.8105V45H94.1328ZM98.082 45H97.1094V35.8828H98.082V45ZM99.125 38.5781H100.168L101.574 42.2402C101.883 43.0762 102.074 43.6797 102.148 44.0508H102.195C102.246 43.8516 102.352 43.5117 102.512 43.0312C102.676 42.5469 103.207 41.0625 104.105 38.5781H105.148L102.389 45.8906C102.115 46.6133 101.795 47.125 101.428 47.4258C101.064 47.7305 100.617 47.8828 100.086 47.8828C99.7891 47.8828 99.4961 47.8496 99.207 47.7832V47.0039C99.4219 47.0508 99.6621 47.0742 99.9277 47.0742C100.596 47.0742 101.072 46.6992 101.357 45.9492L101.715 45.0352L99.125 38.5781ZM112.297 45.1172C111.879 45.1172 111.496 45.041 111.148 44.8887C110.805 44.7324 110.516 44.4941 110.281 44.1738H110.211C110.258 44.5488 110.281 44.9043 110.281 45.2402V47.8828H109.309V38.5781H110.1L110.234 39.457H110.281C110.531 39.1055 110.822 38.8516 111.154 38.6953C111.486 38.5391 111.867 38.4609 112.297 38.4609C113.148 38.4609 113.805 38.752 114.266 39.334C114.73 39.916 114.963 40.7324 114.963 41.7832C114.963 42.8379 114.727 43.6582 114.254 44.2441C113.785 44.8262 113.133 45.1172 112.297 45.1172ZM112.156 39.2871C111.5 39.2871 111.025 39.4688 110.732 39.832C110.439 40.1953 110.289 40.7734 110.281 41.5664V41.7832C110.281 42.6855 110.432 43.332 110.732 43.7227C111.033 44.1094 111.516 44.3027 112.18 44.3027C112.734 44.3027 113.168 44.0781 113.48 43.6289C113.797 43.1797 113.955 42.5605 113.955 41.7715C113.955 40.9707 113.797 40.3574 113.48 39.9316C113.168 39.502 112.727 39.2871 112.156 39.2871ZM122.211 41.7832C122.211 42.8301 121.947 43.6484 121.42 44.2383C120.893 44.8242 120.164 45.1172 119.234 45.1172C118.66 45.1172 118.15 44.9824 117.705 44.7129C117.26 44.4434 116.916 44.0566 116.674 43.5527C116.432 43.0488 116.311 42.459 116.311 41.7832C116.311 40.7363 116.572 39.9219 117.096 39.3398C117.619 38.7539 118.346 38.4609 119.275 38.4609C120.174 38.4609 120.887 38.7598 121.414 39.3574C121.945 39.9551 122.211 40.7637 122.211 41.7832ZM117.318 41.7832C117.318 42.6035 117.482 43.2285 117.811 43.6582C118.139 44.0879 118.621 44.3027 119.258 44.3027C119.895 44.3027 120.377 44.0898 120.705 43.6641C121.037 43.2344 121.203 42.6074 121.203 41.7832C121.203 40.9668 121.037 40.3477 120.705 39.9258C120.377 39.5 119.891 39.2871 119.246 39.2871C118.609 39.2871 118.129 39.4961 117.805 39.9141C117.48 40.332 117.318 40.9551 117.318 41.7832ZM124.895 45H123.922V38.5781H124.895V45ZM123.84 36.8379C123.84 36.6152 123.895 36.4531 124.004 36.3516C124.113 36.2461 124.25 36.1934 124.414 36.1934C124.57 36.1934 124.705 36.2461 124.818 36.3516C124.932 36.457 124.988 36.6191 124.988 36.8379C124.988 37.0566 124.932 37.2207 124.818 37.3301C124.705 37.4355 124.57 37.4883 124.414 37.4883C124.25 37.4883 124.113 37.4355 124.004 37.3301C123.895 37.2207 123.84 37.0566 123.84 36.8379ZM131.352 45V40.8457C131.352 40.3223 131.232 39.9316 130.994 39.6738C130.756 39.416 130.383 39.2871 129.875 39.2871C129.203 39.2871 128.711 39.4688 128.398 39.832C128.086 40.1953 127.93 40.7949 127.93 41.6309V45H126.957V38.5781H127.748L127.906 39.457H127.953C128.152 39.1406 128.432 38.8965 128.791 38.7246C129.15 38.5488 129.551 38.4609 129.992 38.4609C130.766 38.4609 131.348 38.6484 131.738 39.0234C132.129 39.3945 132.324 39.9902 132.324 40.8105V45H131.352ZM136.402 44.3145C136.574 44.3145 136.74 44.3027 136.9 44.2793C137.061 44.252 137.188 44.2246 137.281 44.1973V44.9414C137.176 44.9922 137.02 45.0332 136.812 45.0645C136.609 45.0996 136.426 45.1172 136.262 45.1172C135.02 45.1172 134.398 44.4629 134.398 43.1543V39.334H133.479V38.8652L134.398 38.4609L134.809 37.0898H135.371V38.5781H137.234V39.334H135.371V43.1133C135.371 43.5 135.463 43.7969 135.646 44.0039C135.83 44.2109 136.082 44.3145 136.402 44.3145ZM142.713 43.248C142.713 43.8457 142.49 44.3066 142.045 44.6309C141.6 44.9551 140.975 45.1172 140.17 45.1172C139.318 45.1172 138.654 44.9824 138.178 44.7129V43.8105C138.486 43.9668 138.816 44.0898 139.168 44.1797C139.523 44.2695 139.865 44.3145 140.193 44.3145C140.701 44.3145 141.092 44.2344 141.365 44.0742C141.639 43.9102 141.775 43.6621 141.775 43.3301C141.775 43.0801 141.666 42.8672 141.447 42.6914C141.232 42.5117 140.811 42.3008 140.182 42.0586C139.584 41.8359 139.158 41.6426 138.904 41.4785C138.654 41.3105 138.467 41.1211 138.342 40.9102C138.221 40.6992 138.16 40.4473 138.16 40.1543C138.16 39.6309 138.373 39.2188 138.799 38.918C139.225 38.6133 139.809 38.4609 140.551 38.4609C141.242 38.4609 141.918 38.6016 142.578 38.8828L142.232 39.6738C141.588 39.4082 141.004 39.2754 140.48 39.2754C140.02 39.2754 139.672 39.3477 139.438 39.4922C139.203 39.6367 139.086 39.8359 139.086 40.0898C139.086 40.2617 139.129 40.4082 139.215 40.5293C139.305 40.6504 139.447 40.7656 139.643 40.875C139.838 40.9844 140.213 41.1426 140.768 41.3496C141.529 41.627 142.043 41.9062 142.309 42.1875C142.578 42.4688 142.713 42.8223 142.713 43.248ZM148.812 38.1387C148.812 38.4082 148.883 38.666 149.023 38.9121C149.164 39.1543 149.404 39.4473 149.744 39.791C150.248 39.498 150.598 39.2285 150.793 38.9824C150.992 38.7324 151.092 38.4453 151.092 38.1211C151.092 37.8203 150.99 37.5762 150.787 37.3887C150.588 37.1973 150.32 37.1016 149.984 37.1016C149.637 37.1016 149.354 37.1953 149.135 37.3828C148.92 37.5703 148.812 37.8223 148.812 38.1387ZM149.721 44.2441C150.662 44.2441 151.443 43.9434 152.064 43.3418L149.504 40.8574C149.07 41.123 148.764 41.3438 148.584 41.5195C148.404 41.6914 148.271 41.877 148.186 42.0762C148.1 42.2754 148.057 42.502 148.057 42.7559C148.057 43.2129 148.207 43.5762 148.508 43.8457C148.812 44.1113 149.217 44.2441 149.721 44.2441ZM147.049 42.7793C147.049 42.2715 147.184 41.8223 147.453 41.4316C147.727 41.041 148.215 40.6465 148.918 40.248C148.586 39.877 148.359 39.5957 148.238 39.4043C148.121 39.2129 148.027 39.0137 147.957 38.8066C147.887 38.5996 147.852 38.3848 147.852 38.1621C147.852 37.5762 148.043 37.1191 148.426 36.791C148.809 36.4629 149.342 36.2988 150.025 36.2988C150.658 36.2988 151.156 36.4629 151.52 36.791C151.883 37.1152 152.064 37.5684 152.064 38.1504C152.064 38.5684 151.932 38.9551 151.666 39.3105C151.4 39.6621 150.961 40.0195 150.348 40.3828L152.732 42.6738C152.951 42.4316 153.125 42.1484 153.254 41.8242C153.387 41.4961 153.498 41.1387 153.588 40.752H154.572C154.307 41.8691 153.906 42.7168 153.371 43.2949L155.123 45H153.781L152.697 43.957C152.236 44.3711 151.768 44.668 151.291 44.8477C150.814 45.0273 150.283 45.1172 149.697 45.1172C148.857 45.1172 148.205 44.9102 147.74 44.4961C147.279 44.082 147.049 43.5098 147.049 42.7793ZM162.23 38.4609C162.516 38.4609 162.771 38.4844 162.998 38.5312L162.863 39.4336C162.598 39.375 162.363 39.3457 162.16 39.3457C161.641 39.3457 161.195 39.5566 160.824 39.9785C160.457 40.4004 160.273 40.9258 160.273 41.5547V45H159.301V38.5781H160.104L160.215 39.7676H160.262C160.5 39.3496 160.787 39.0273 161.123 38.8008C161.459 38.5742 161.828 38.4609 162.23 38.4609ZM166.912 45.1172C165.963 45.1172 165.213 44.8281 164.662 44.25C164.115 43.6719 163.842 42.8691 163.842 41.8418C163.842 40.8066 164.096 39.9844 164.604 39.375C165.115 38.7656 165.801 38.4609 166.66 38.4609C167.465 38.4609 168.102 38.7266 168.57 39.2578C169.039 39.7852 169.273 40.4824 169.273 41.3496V41.9648H164.85C164.869 42.7188 165.059 43.291 165.418 43.6816C165.781 44.0723 166.291 44.2676 166.947 44.2676C167.639 44.2676 168.322 44.123 168.998 43.834V44.7012C168.654 44.8496 168.328 44.9551 168.02 45.0176C167.715 45.084 167.346 45.1172 166.912 45.1172ZM166.648 39.2754C166.133 39.2754 165.721 39.4434 165.412 39.7793C165.107 40.1152 164.928 40.5801 164.873 41.1738H168.23C168.23 40.5605 168.094 40.0918 167.82 39.7676C167.547 39.4395 167.156 39.2754 166.648 39.2754ZM176.182 45L175.004 41.2324C174.93 41.002 174.791 40.4785 174.588 39.6621H174.541C174.385 40.3457 174.248 40.873 174.131 41.2441L172.918 45H171.793L170.041 38.5781H171.061C171.475 40.1914 171.789 41.4199 172.004 42.2637C172.223 43.1074 172.348 43.6758 172.379 43.9688H172.426C172.469 43.7461 172.537 43.459 172.631 43.1074C172.729 42.752 172.812 42.4707 172.883 42.2637L174.061 38.5781H175.115L176.264 42.2637C176.482 42.9355 176.631 43.5 176.709 43.957H176.756C176.771 43.8164 176.812 43.5996 176.879 43.3066C176.949 43.0137 177.357 41.4375 178.104 38.5781H179.111L177.336 45H176.182ZM184.227 45L184.033 44.0859H183.986C183.666 44.4883 183.346 44.7617 183.025 44.9062C182.709 45.0469 182.312 45.1172 181.836 45.1172C181.199 45.1172 180.699 44.9531 180.336 44.625C179.977 44.2969 179.797 43.8301 179.797 43.2246C179.797 41.9277 180.834 41.248 182.908 41.1855L183.998 41.1504V40.752C183.998 40.248 183.889 39.877 183.67 39.6387C183.455 39.3965 183.109 39.2754 182.633 39.2754C182.098 39.2754 181.492 39.4395 180.816 39.7676L180.518 39.0234C180.834 38.8516 181.18 38.7168 181.555 38.6191C181.934 38.5215 182.312 38.4727 182.691 38.4727C183.457 38.4727 184.023 38.6426 184.391 38.9824C184.762 39.3223 184.947 39.8672 184.947 40.6172V45H184.227ZM182.029 44.3145C182.635 44.3145 183.109 44.1484 183.453 43.8164C183.801 43.4844 183.975 43.0195 183.975 42.4219V41.8418L183.002 41.8828C182.229 41.9102 181.67 42.0312 181.326 42.2461C180.986 42.457 180.816 42.7871 180.816 43.2363C180.816 43.5879 180.922 43.8555 181.133 44.0391C181.348 44.2227 181.646 44.3145 182.029 44.3145ZM189.887 38.4609C190.172 38.4609 190.428 38.4844 190.654 38.5312L190.52 39.4336C190.254 39.375 190.02 39.3457 189.816 39.3457C189.297 39.3457 188.852 39.5566 188.48 39.9785C188.113 40.4004 187.93 40.9258 187.93 41.5547V45H186.957V38.5781H187.76L187.871 39.7676H187.918C188.156 39.3496 188.443 39.0273 188.779 38.8008C189.115 38.5742 189.484 38.4609 189.887 38.4609ZM196.227 44.1387H196.174C195.725 44.791 195.053 45.1172 194.158 45.1172C193.318 45.1172 192.664 44.8301 192.195 44.2559C191.73 43.6816 191.498 42.8652 191.498 41.8066C191.498 40.748 191.732 39.9258 192.201 39.3398C192.67 38.7539 193.322 38.4609 194.158 38.4609C195.029 38.4609 195.697 38.7773 196.162 39.4102H196.238L196.197 38.9473L196.174 38.4961V35.8828H197.146V45H196.355L196.227 44.1387ZM194.281 44.3027C194.945 44.3027 195.426 44.123 195.723 43.7637C196.023 43.4004 196.174 42.8164 196.174 42.0117V41.8066C196.174 40.8965 196.021 40.248 195.717 39.8613C195.416 39.4707 194.934 39.2754 194.27 39.2754C193.699 39.2754 193.262 39.498 192.957 39.9434C192.656 40.3848 192.506 41.0098 192.506 41.8184C192.506 42.6387 192.656 43.2578 192.957 43.6758C193.258 44.0938 193.699 44.3027 194.281 44.3027ZM203.357 43.248C203.357 43.8457 203.135 44.3066 202.689 44.6309C202.244 44.9551 201.619 45.1172 200.814 45.1172C199.963 45.1172 199.299 44.9824 198.822 44.7129V43.8105C199.131 43.9668 199.461 44.0898 199.812 44.1797C200.168 44.2695 200.51 44.3145 200.838 44.3145C201.346 44.3145 201.736 44.2344 202.01 44.0742C202.283 43.9102 202.42 43.6621 202.42 43.3301C202.42 43.0801 202.311 42.8672 202.092 42.6914C201.877 42.5117 201.455 42.3008 200.826 42.0586C200.229 41.8359 199.803 41.6426 199.549 41.4785C199.299 41.3105 199.111 41.1211 198.986 40.9102C198.865 40.6992 198.805 40.4473 198.805 40.1543C198.805 39.6309 199.018 39.2188 199.443 38.918C199.869 38.6133 200.453 38.4609 201.195 38.4609C201.887 38.4609 202.562 38.6016 203.223 38.8828L202.877 39.6738C202.232 39.4082 201.648 39.2754 201.125 39.2754C200.664 39.2754 200.316 39.3477 200.082 39.4922C199.848 39.6367 199.73 39.8359 199.73 40.0898C199.73 40.2617 199.773 40.4082 199.859 40.5293C199.949 40.6504 200.092 40.7656 200.287 40.875C200.482 40.9844 200.857 41.1426 201.412 41.3496C202.174 41.627 202.688 41.9062 202.953 42.1875C203.223 42.4688 203.357 42.8223 203.357 43.248Z" fill="#807E7E"/>
<path d="M75.3594 23H73.5078V11.5781H79.9531V13.1562H75.3594V16.7266H79.6641V18.3125H75.3594V23ZM86.2109 14.2031C86.5807 14.2031 86.8854 14.2292 87.125 14.2812L86.9453 15.9922C86.6849 15.9297 86.4141 15.8984 86.1328 15.8984C85.3984 15.8984 84.8021 16.138 84.3438 16.6172C83.8906 17.0964 83.6641 17.7188 83.6641 18.4844V23H81.8281V14.3594H83.2656L83.5078 15.8828H83.6016C83.888 15.3672 84.2604 14.9583 84.7188 14.6562C85.1823 14.3542 85.6797 14.2031 86.2109 14.2031ZM92.5078 23.1562C91.1641 23.1562 90.112 22.7656 89.3516 21.9844C88.5964 21.1979 88.2188 20.1172 88.2188 18.7422C88.2188 17.3307 88.5703 16.2214 89.2734 15.4141C89.9766 14.6068 90.9427 14.2031 92.1719 14.2031C93.3125 14.2031 94.2135 14.5495 94.875 15.2422C95.5365 15.9349 95.8672 16.888 95.8672 18.1016V19.0938H90.1094C90.1354 19.9323 90.362 20.5781 90.7891 21.0312C91.2161 21.4792 91.8177 21.7031 92.5938 21.7031C93.1042 21.7031 93.5781 21.6562 94.0156 21.5625C94.4583 21.4635 94.9323 21.3021 95.4375 21.0781V22.5703C94.9896 22.7839 94.5365 22.9349 94.0781 23.0234C93.6198 23.112 93.0964 23.1562 92.5078 23.1562ZM92.1719 15.5938C91.5885 15.5938 91.1198 15.7786 90.7656 16.1484C90.4167 16.5182 90.2083 17.0573 90.1406 17.7656H94.0625C94.0521 17.0521 93.8802 16.513 93.5469 16.1484C93.2135 15.7786 92.7552 15.5938 92.1719 15.5938ZM101.727 23.1562C100.383 23.1562 99.3307 22.7656 98.5703 21.9844C97.8151 21.1979 97.4375 20.1172 97.4375 18.7422C97.4375 17.3307 97.7891 16.2214 98.4922 15.4141C99.1953 14.6068 100.161 14.2031 101.391 14.2031C102.531 14.2031 103.432 14.5495 104.094 15.2422C104.755 15.9349 105.086 16.888 105.086 18.1016V19.0938H99.3281C99.3542 19.9323 99.5807 20.5781 100.008 21.0312C100.435 21.4792 101.036 21.7031 101.812 21.7031C102.323 21.7031 102.797 21.6562 103.234 21.5625C103.677 21.4635 104.151 21.3021 104.656 21.0781V22.5703C104.208 22.7839 103.755 22.9349 103.297 23.0234C102.839 23.112 102.315 23.1562 101.727 23.1562ZM101.391 15.5938C100.807 15.5938 100.339 15.7786 99.9844 16.1484C99.6354 16.5182 99.4271 17.0573 99.3594 17.7656H103.281C103.271 17.0521 103.099 16.513 102.766 16.1484C102.432 15.7786 101.974 15.5938 101.391 15.5938ZM117.133 20.5391C117.133 21.3828 116.826 22.0312 116.211 22.4844C115.596 22.9323 114.716 23.1562 113.57 23.1562C112.419 23.1562 111.495 22.9818 110.797 22.6328V21.0469C111.812 21.5156 112.758 21.75 113.633 21.75C114.763 21.75 115.328 21.4089 115.328 20.7266C115.328 20.5078 115.266 20.3255 115.141 20.1797C115.016 20.0339 114.81 19.8828 114.523 19.7266C114.237 19.5703 113.839 19.3932 113.328 19.1953C112.333 18.8099 111.659 18.4245 111.305 18.0391C110.956 17.6536 110.781 17.1536 110.781 16.5391C110.781 15.7995 111.078 15.2266 111.672 14.8203C112.271 14.4089 113.083 14.2031 114.109 14.2031C115.125 14.2031 116.086 14.4089 116.992 14.8203L116.398 16.2031C115.466 15.8177 114.682 15.625 114.047 15.625C113.078 15.625 112.594 15.901 112.594 16.4531C112.594 16.724 112.719 16.9531 112.969 17.1406C113.224 17.3281 113.776 17.5859 114.625 17.9141C115.339 18.1901 115.857 18.4427 116.18 18.6719C116.503 18.901 116.742 19.1667 116.898 19.4688C117.055 19.7656 117.133 20.1224 117.133 20.5391ZM122.344 21.6719C122.792 21.6719 123.24 21.6016 123.688 21.4609V22.8438C123.484 22.9323 123.221 23.0052 122.898 23.0625C122.581 23.125 122.25 23.1562 121.906 23.1562C120.167 23.1562 119.297 22.2396 119.297 20.4062V15.75H118.117V14.9375L119.383 14.2656L120.008 12.4375H121.141V14.3594H123.602V15.75H121.141V20.375C121.141 20.8177 121.25 21.1458 121.469 21.3594C121.693 21.5677 121.984 21.6719 122.344 21.6719ZM131.516 23L131.258 21.8672H131.164C130.909 22.2682 130.544 22.5833 130.07 22.8125C129.602 23.0417 129.065 23.1562 128.461 23.1562C127.414 23.1562 126.633 22.8958 126.117 22.375C125.602 21.8542 125.344 21.0651 125.344 20.0078V14.3594H127.195V19.6875C127.195 20.349 127.331 20.8464 127.602 21.1797C127.872 21.5078 128.297 21.6719 128.875 21.6719C129.646 21.6719 130.211 21.4427 130.57 20.9844C130.935 20.5208 131.117 19.7474 131.117 18.6641V14.3594H132.961V23H131.516ZM139.914 15.75H137.805V23H135.961V15.75H134.539V14.8906L135.961 14.3281V13.7656C135.961 12.7448 136.201 11.9896 136.68 11.5C137.159 11.0052 137.891 10.7578 138.875 10.7578C139.521 10.7578 140.156 10.8646 140.781 11.0781L140.297 12.4688C139.844 12.3229 139.411 12.25 139 12.25C138.583 12.25 138.279 12.3802 138.086 12.6406C137.898 12.8958 137.805 13.2812 137.805 13.7969V14.3594H139.914V15.75ZM145.727 15.75H143.617V23H141.773V15.75H140.352V14.8906L141.773 14.3281V13.7656C141.773 12.7448 142.013 11.9896 142.492 11.5C142.971 11.0052 143.703 10.7578 144.688 10.7578C145.333 10.7578 145.969 10.8646 146.594 11.0781L146.109 12.4688C145.656 12.3229 145.224 12.25 144.812 12.25C144.396 12.25 144.091 12.3802 143.898 12.6406C143.711 12.8958 143.617 13.2812 143.617 13.7969V14.3594H145.727V15.75ZM148.789 19.5312H147.43L147.023 11.5781H149.188L148.789 19.5312ZM146.93 22.0234C146.93 21.638 147.031 21.3464 147.234 21.1484C147.438 20.9453 147.727 20.8438 148.102 20.8438C148.471 20.8438 148.755 20.9479 148.953 21.1562C149.151 21.3646 149.25 21.6536 149.25 22.0234C149.25 22.3932 149.148 22.6875 148.945 22.9062C148.747 23.1198 148.466 23.2266 148.102 23.2266C147.732 23.2266 147.443 23.1224 147.234 22.9141C147.031 22.7057 146.93 22.4089 146.93 22.0234Z" fill="#212121"/>
<path fill-rule="evenodd" clip-rule="evenodd" d="M45.5 12.251C45.5 8.06286 42.1048 4.66768 37.9167 4.66768L37.4427 4.67246C33.3531 4.82679 29.7393 7.90194 27.4403 12.7395L27.4144 12.7923L27.1215 12.1892C24.7211 7.48895 21.0339 4.59568 16.8862 4.66795C12.7285 4.66768 9.33335 8.06286 9.33335 12.251C9.33335 13.7542 9.7707 15.1552 10.5251 16.3337H8.75002C6.49486 16.3337 4.66669 18.1619 4.66669 20.4171V25.0837C4.66669 27.3389 6.49486 29.1671 8.75002 29.1671H9.33335V43.7504L9.34506 44.1413C9.54708 47.5031 12.3374 50.1671 15.75 50.1671H27.4167H39.0834L39.4742 50.1554C42.836 49.9534 45.5 47.163 45.5 43.7504V29.1671H46.0834C48.3385 29.1671 50.1667 27.3389 50.1667 25.0837V20.4171C50.1667 18.1619 48.3385 16.3337 46.0834 16.3337H44.3083C45.0627 15.1552 45.5 13.7542 45.5 12.251ZM37.8703 19.8337C37.8857 19.8341 37.9012 19.8343 37.9167 19.8343C37.949 19.8343 37.9812 19.8341 38.0134 19.8337H46.0834C46.4055 19.8337 46.6667 20.0949 46.6667 20.4171V25.0837C46.6667 25.4059 46.4055 25.6671 46.0834 25.6671H43.75H29.1667V19.8337H37.8703ZM37.9877 16.3337C40.2101 16.2959 42 14.4825 42 12.251C42 9.99585 40.1718 8.16768 37.8862 8.16742C34.6844 8.11163 31.5186 11.2032 29.7488 16.3337H37.9877ZM25.0845 16.3337C23.3143 11.2032 20.1454 8.11166 16.9167 8.16768C14.6615 8.16768 12.8334 9.99585 12.8334 12.251C12.8334 14.3934 14.4833 16.1505 16.5818 16.3208L16.9017 16.3337H25.0845ZM16.82 19.8337C16.8522 19.8341 16.8844 19.8343 16.9167 19.8343C16.9322 19.8343 16.9477 19.8341 16.9631 19.8337H25.6667V25.6671H11.0834H8.75002C8.42785 25.6671 8.16669 25.4059 8.16669 25.0837V20.4171C8.16669 20.0949 8.42785 19.8337 8.75002 19.8337H16.82ZM12.8334 43.7504V29.1671H25.6667V46.6671H15.75L15.4518 46.652C13.9811 46.5027 12.8334 45.2606 12.8334 43.7504ZM39.0834 46.6671H29.1667V29.1671H42V43.7504L41.985 44.0486C41.8356 45.5194 40.5935 46.6671 39.0834 46.6671Z" fill="#212121"/>
</svg>
