<svg width="12" height="11" viewBox="0 0 12 11" fill="none" xmlns="http://www.w3.org/2000/svg">
<mask id="path-1-inside-1_4275_6281" fill="white">
<path fill-rule="evenodd" clip-rule="evenodd" d="M5.83146 1.67267L5.86303 1.70466L5.89478 1.67411C6.61981 0.99191 7.61889 0.661502 8.62074 0.790462L8.76385 0.812022C10.0038 1.02615 11.0196 1.91627 11.3947 3.11736C11.7698 4.31846 11.4411 5.62846 10.5434 6.5102L10.5169 6.53233L6.16973 10.8384C6.01472 10.9919 5.77359 11.0059 5.60293 10.8803L5.554 10.8384L1.18175 6.50813C0.276996 5.62771 -0.0567895 4.31386 0.318039 3.10837C0.692867 1.90287 1.71282 1.00994 2.95729 0.797794C4.0103 0.618284 5.07313 0.951929 5.83146 1.67267ZM3.10435 1.66037C2.18452 1.81717 1.43065 2.47717 1.1536 3.36818C0.889744 4.21677 1.10095 5.138 1.69934 5.78595L1.79474 5.88375L5.86188 9.91218L9.92902 5.88375L9.94696 5.86793L10.0222 5.79076C10.6158 5.14222 10.8236 4.22371 10.5595 3.37822C10.2823 2.49046 9.53145 1.83255 8.61497 1.67428C7.69848 1.516 6.7705 1.884 6.21156 2.62736C6.03593 2.86093 5.68507 2.85996 5.51074 2.62541C4.95414 1.87651 4.02417 1.50356 3.10435 1.66037Z"/>
</mask>
<path fill-rule="evenodd" clip-rule="evenodd" d="M5.83146 1.67267L5.86303 1.70466L5.89478 1.67411C6.61981 0.99191 7.61889 0.661502 8.62074 0.790462L8.76385 0.812022C10.0038 1.02615 11.0196 1.91627 11.3947 3.11736C11.7698 4.31846 11.4411 5.62846 10.5434 6.5102L10.5169 6.53233L6.16973 10.8384C6.01472 10.9919 5.77359 11.0059 5.60293 10.8803L5.554 10.8384L1.18175 6.50813C0.276996 5.62771 -0.0567895 4.31386 0.318039 3.10837C0.692867 1.90287 1.71282 1.00994 2.95729 0.797794C4.0103 0.618284 5.07313 0.951929 5.83146 1.67267ZM3.10435 1.66037C2.18452 1.81717 1.43065 2.47717 1.1536 3.36818C0.889744 4.21677 1.10095 5.138 1.69934 5.78595L1.79474 5.88375L5.86188 9.91218L9.92902 5.88375L9.94696 5.86793L10.0222 5.79076C10.6158 5.14222 10.8236 4.22371 10.5595 3.37822C10.2823 2.49046 9.53145 1.83255 8.61497 1.67428C7.69848 1.516 6.7705 1.884 6.21156 2.62736C6.03593 2.86093 5.68507 2.85996 5.51074 2.62541C4.95414 1.87651 4.02417 1.50356 3.10435 1.66037Z" fill="#212121"/>
<path d="M5.83146 1.67267L6.54322 0.970248L6.53197 0.958857L6.52037 0.947832L5.83146 1.67267ZM5.86303 1.70466L5.15127 2.40709L5.84485 3.10989L6.55638 2.42526L5.86303 1.70466ZM5.89478 1.67411L5.20947 0.945775L5.20143 0.953512L5.89478 1.67411ZM8.62074 0.790462L8.76971 -0.19838L8.75907 -0.199982L8.74841 -0.201355L8.62074 0.790462ZM8.76385 0.812022L8.93402 -0.173392L8.92344 -0.17522L8.91282 -0.176821L8.76385 0.812022ZM10.5434 6.5102L11.1834 7.27864L11.2149 7.25238L11.2442 7.22363L10.5434 6.5102ZM10.5169 6.53233L9.87694 5.76389L9.84378 5.79151L9.81312 5.82188L10.5169 6.53233ZM6.16973 10.8384L6.87341 11.5489L6.87347 11.5489L6.16973 10.8384ZM5.60293 10.8803L4.95278 11.6401L4.98064 11.6639L5.01018 11.6857L5.60293 10.8803ZM5.554 10.8384L4.85031 11.5489L4.87618 11.5746L4.90385 11.5982L5.554 10.8384ZM1.18175 6.50813L1.88547 5.79759L1.87915 5.79145L1.18175 6.50813ZM2.95729 0.797794L3.12533 1.78357L2.95729 0.797794ZM1.1536 3.36818L2.1085 3.66509L1.1536 3.36818ZM1.69934 5.78595L0.964699 6.4644L0.973972 6.47445L0.983516 6.48423L1.69934 5.78595ZM1.79474 5.88375L1.07892 6.58203L1.08492 6.58818L1.09103 6.59423L1.79474 5.88375ZM5.86188 9.91218L5.15816 10.6227L5.86188 11.3197L6.5656 10.6227L5.86188 9.91218ZM9.92902 5.88375L9.26778 5.13358L9.24596 5.15281L9.2253 5.17327L9.92902 5.88375ZM9.94696 5.86793L10.6082 6.61811L10.6365 6.59315L10.6629 6.56614L9.94696 5.86793ZM10.0222 5.79076L10.7381 6.48897L10.7492 6.47761L10.7599 6.46591L10.0222 5.79076ZM10.5595 3.37822L11.5141 3.08012L10.5595 3.37822ZM6.21156 2.62736L7.01083 3.22834L6.21156 2.62736ZM5.51074 2.62541L4.70814 3.22193L5.51074 2.62541ZM5.1197 2.3751L5.15127 2.40709L6.57479 1.00224L6.54322 0.970248L5.1197 2.3751ZM6.55638 2.42526L6.58814 2.39471L5.20143 0.953512L5.16968 0.984065L6.55638 2.42526ZM6.58005 2.4024C7.08888 1.92363 7.79029 1.69182 8.49307 1.78228L8.74841 -0.201355C7.44748 -0.368811 6.15075 0.0601868 5.20951 0.94582L6.58005 2.4024ZM8.47177 1.7793L8.61488 1.80086L8.91282 -0.176821L8.76971 -0.19838L8.47177 1.7793ZM8.59368 1.79744C9.46395 1.94773 10.1769 2.57246 10.4402 3.41547L12.3492 2.81925C11.8623 1.26007 10.5437 0.10458 8.93402 -0.173392L8.59368 1.79744ZM10.4402 3.41547C10.7035 4.25847 10.4728 5.17792 9.8427 5.79678L11.2442 7.22363C12.4095 6.07901 12.8362 4.37844 12.3492 2.81925L10.4402 3.41547ZM9.90351 5.74177L9.87694 5.76389L11.1568 7.30077L11.1834 7.27864L9.90351 5.74177ZM9.81312 5.82188L5.46598 10.128L6.87347 11.5489L11.2206 7.24278L9.81312 5.82188ZM5.46604 10.1279C5.66594 9.92993 5.97554 9.91289 6.19568 10.0749L5.01018 11.6857C5.57165 12.0989 6.3635 12.054 6.87341 11.5489L5.46604 10.1279ZM6.25308 10.1205L6.20415 10.0786L4.90385 11.5982L4.95278 11.6401L6.25308 10.1205ZM6.25769 10.1279L1.88544 5.79762L0.47806 7.21864L4.85031 11.5489L6.25769 10.1279ZM1.87915 5.79145C1.24414 5.17352 1.00987 4.25137 1.27294 3.40528L-0.636866 2.81145C-1.12344 4.37635 -0.690145 6.08191 0.484349 7.22481L1.87915 5.79145ZM1.27294 3.40528C1.53602 2.55919 2.25189 1.93247 3.12533 1.78357L2.78924 -0.187985C1.17375 0.0874121 -0.150287 1.24656 -0.636866 2.81145L1.27294 3.40528ZM3.12533 1.78357C3.86421 1.65761 4.61031 1.89166 5.14254 2.39751L6.52037 0.947832C5.53596 0.0122009 4.15639 -0.421046 2.78924 -0.187985L3.12533 1.78357ZM2.9363 0.674589C1.64545 0.894643 0.587491 1.82085 0.198693 3.07127L2.1085 3.66509C2.2738 3.13348 2.72359 2.7397 3.27239 2.64615L2.9363 0.674589ZM0.198693 3.07127C-0.171609 4.26221 0.124813 5.55496 0.964699 6.4644L2.43398 5.1075C2.07709 4.72105 1.9511 4.17133 2.1085 3.66509L0.198693 3.07127ZM0.983516 6.48423L1.07892 6.58203L2.51057 5.18547L2.41517 5.08767L0.983516 6.48423ZM1.09103 6.59423L5.15816 10.6227L6.5656 9.2017L2.49846 5.17327L1.09103 6.59423ZM6.5656 10.6227L10.6327 6.59423L9.2253 5.17327L5.15816 9.2017L6.5656 10.6227ZM10.5903 6.63392L10.6082 6.61811L9.28572 5.11776L9.26778 5.13358L10.5903 6.63392ZM10.6629 6.56614L10.7381 6.48897L9.30633 5.09255L9.23107 5.16972L10.6629 6.56614ZM10.7599 6.46591C11.593 5.55563 11.8846 4.26671 11.5141 3.08012L9.60499 3.67633C9.76251 4.18072 9.63856 4.72881 9.28454 5.11561L10.7599 6.46591ZM11.5141 3.08012C11.125 1.83426 10.0713 0.910974 8.78514 0.688862L8.44479 2.65969C8.9916 2.75412 9.43956 3.14666 9.60499 3.67633L11.5141 3.08012ZM8.78514 0.688862C7.49898 0.46675 6.19669 0.983178 5.41229 2.02638L7.01083 3.22834C7.34431 2.78482 7.89798 2.56526 8.44479 2.65969L8.78514 0.688862ZM5.41229 2.02638C5.6381 1.72607 6.08921 1.72733 6.31334 2.02889L4.70814 3.22193C5.28092 3.99259 6.43376 3.99579 7.01083 3.22834L5.41229 2.02638ZM6.31334 2.02889C5.53222 0.977911 4.22714 0.454535 2.9363 0.674589L3.27239 2.64615C3.8212 2.55259 4.37605 2.7751 4.70814 3.22193L6.31334 2.02889Z" fill="#212121" mask="url(#path-1-inside-1_4275_6281)"/>
</svg>
