<svg width="234" height="56" viewBox="0 0 234 56" fill="none" xmlns="http://www.w3.org/2000/svg">
<g clip-path="url(#clip0_878_100425)">
<path d="M78.2168 46H72.5859V45.1621L74.8418 42.8945C75.5293 42.1992 75.9824 41.7031 76.2012 41.4062C76.4199 41.1094 76.584 40.8203 76.6934 40.5391C76.8027 40.2578 76.8574 39.9551 76.8574 39.6309C76.8574 39.1738 76.7188 38.8125 76.4414 38.5469C76.1641 38.2773 75.7793 38.1426 75.2871 38.1426C74.9316 38.1426 74.5938 38.2012 74.2734 38.3184C73.957 38.4355 73.6035 38.6484 73.2129 38.957L72.6973 38.2949C73.4863 37.6387 74.3457 37.3105 75.2754 37.3105C76.0801 37.3105 76.7109 37.5176 77.168 37.9316C77.625 38.3418 77.8535 38.8945 77.8535 39.5898C77.8535 40.1328 77.7012 40.6699 77.3965 41.2012C77.0918 41.7324 76.5215 42.4043 75.6855 43.2168L73.8105 45.0508V45.0977H78.2168V46ZM85.4883 44.0312H84.2168V46H83.2852V44.0312H79.1191V43.1816L83.1855 37.3867H84.2168V43.1465H85.4883V44.0312ZM83.2852 43.1465V40.2988C83.2852 39.7402 83.3047 39.1094 83.3438 38.4062H83.2969C83.1094 38.7812 82.9336 39.0918 82.7695 39.3379L80.0918 43.1465H83.2852ZM93.1348 37.4336L89.9414 46H88.9688L92.1621 37.4336H93.1348ZM98.0449 46L101.596 38.3301H96.9258V37.4336H102.627V38.2129L99.123 46H98.0449ZM110.285 40.334H108.65V46H107.678V40.334H106.529V39.8945L107.678 39.543V39.1855C107.678 37.6074 108.367 36.8184 109.746 36.8184C110.086 36.8184 110.484 36.8867 110.941 37.0234L110.689 37.8027C110.314 37.6816 109.994 37.6211 109.729 37.6211C109.361 37.6211 109.09 37.7441 108.914 37.9902C108.738 38.2324 108.65 38.623 108.65 39.1621V39.5781H110.285V40.334ZM114.387 39.4609C114.672 39.4609 114.928 39.4844 115.154 39.5312L115.02 40.4336C114.754 40.375 114.52 40.3457 114.316 40.3457C113.797 40.3457 113.352 40.5566 112.98 40.9785C112.613 41.4004 112.43 41.9258 112.43 42.5547V46H111.457V39.5781H112.26L112.371 40.7676H112.418C112.656 40.3496 112.943 40.0273 113.279 39.8008C113.615 39.5742 113.984 39.4609 114.387 39.4609ZM117.328 46H116.355V39.5781H117.328V46ZM116.273 37.8379C116.273 37.6152 116.328 37.4531 116.438 37.3516C116.547 37.2461 116.684 37.1934 116.848 37.1934C117.004 37.1934 117.139 37.2461 117.252 37.3516C117.365 37.457 117.422 37.6191 117.422 37.8379C117.422 38.0566 117.365 38.2207 117.252 38.3301C117.139 38.4355 117.004 38.4883 116.848 38.4883C116.684 38.4883 116.547 38.4355 116.438 38.3301C116.328 38.2207 116.273 38.0566 116.273 37.8379ZM122.104 46.1172C121.154 46.1172 120.404 45.8281 119.854 45.25C119.307 44.6719 119.033 43.8691 119.033 42.8418C119.033 41.8066 119.287 40.9844 119.795 40.375C120.307 39.7656 120.992 39.4609 121.852 39.4609C122.656 39.4609 123.293 39.7266 123.762 40.2578C124.23 40.7852 124.465 41.4824 124.465 42.3496V42.9648H120.041C120.061 43.7188 120.25 44.291 120.609 44.6816C120.973 45.0723 121.482 45.2676 122.139 45.2676C122.83 45.2676 123.514 45.123 124.189 44.834V45.7012C123.846 45.8496 123.52 45.9551 123.211 46.0176C122.906 46.084 122.537 46.1172 122.104 46.1172ZM121.84 40.2754C121.324 40.2754 120.912 40.4434 120.604 40.7793C120.299 41.1152 120.119 41.5801 120.064 42.1738H123.422C123.422 41.5605 123.285 41.0918 123.012 40.7676C122.738 40.4395 122.348 40.2754 121.84 40.2754ZM130.523 46V41.8457C130.523 41.3223 130.404 40.9316 130.166 40.6738C129.928 40.416 129.555 40.2871 129.047 40.2871C128.375 40.2871 127.883 40.4688 127.57 40.832C127.258 41.1953 127.102 41.7949 127.102 42.6309V46H126.129V39.5781H126.92L127.078 40.457H127.125C127.324 40.1406 127.604 39.8965 127.963 39.7246C128.322 39.5488 128.723 39.4609 129.164 39.4609C129.938 39.4609 130.52 39.6484 130.91 40.0234C131.301 40.3945 131.496 40.9902 131.496 41.8105V46H130.523ZM137.871 45.1387H137.818C137.369 45.791 136.697 46.1172 135.803 46.1172C134.963 46.1172 134.309 45.8301 133.84 45.2559C133.375 44.6816 133.143 43.8652 133.143 42.8066C133.143 41.748 133.377 40.9258 133.846 40.3398C134.314 39.7539 134.967 39.4609 135.803 39.4609C136.674 39.4609 137.342 39.7773 137.807 40.4102H137.883L137.842 39.9473L137.818 39.4961V36.8828H138.791V46H138L137.871 45.1387ZM135.926 45.3027C136.59 45.3027 137.07 45.123 137.367 44.7637C137.668 44.4004 137.818 43.8164 137.818 43.0117V42.8066C137.818 41.8965 137.666 41.248 137.361 40.8613C137.061 40.4707 136.578 40.2754 135.914 40.2754C135.344 40.2754 134.906 40.498 134.602 40.9434C134.301 41.3848 134.15 42.0098 134.15 42.8184C134.15 43.6387 134.301 44.2578 134.602 44.6758C134.902 45.0938 135.344 45.3027 135.926 45.3027ZM141.832 46H140.859V36.8828H141.832V46ZM142.875 39.5781H143.918L145.324 43.2402C145.633 44.0762 145.824 44.6797 145.898 45.0508H145.945C145.996 44.8516 146.102 44.5117 146.262 44.0312C146.426 43.5469 146.957 42.0625 147.855 39.5781H148.898L146.139 46.8906C145.865 47.6133 145.545 48.125 145.178 48.4258C144.814 48.7305 144.367 48.8828 143.836 48.8828C143.539 48.8828 143.246 48.8496 142.957 48.7832V48.0039C143.172 48.0508 143.412 48.0742 143.678 48.0742C144.346 48.0742 144.822 47.6992 145.107 46.9492L145.465 46.0352L142.875 39.5781ZM155.133 45.3145C155.305 45.3145 155.471 45.3027 155.631 45.2793C155.791 45.252 155.918 45.2246 156.012 45.1973V45.9414C155.906 45.9922 155.75 46.0332 155.543 46.0645C155.34 46.0996 155.156 46.1172 154.992 46.1172C153.75 46.1172 153.129 45.4629 153.129 44.1543V40.334H152.209V39.8652L153.129 39.4609L153.539 38.0898H154.102V39.5781H155.965V40.334H154.102V44.1133C154.102 44.5 154.193 44.7969 154.377 45.0039C154.561 45.2109 154.812 45.3145 155.133 45.3145ZM160.014 46.1172C159.064 46.1172 158.314 45.8281 157.764 45.25C157.217 44.6719 156.943 43.8691 156.943 42.8418C156.943 41.8066 157.197 40.9844 157.705 40.375C158.217 39.7656 158.902 39.4609 159.762 39.4609C160.566 39.4609 161.203 39.7266 161.672 40.2578C162.141 40.7852 162.375 41.4824 162.375 42.3496V42.9648H157.951C157.971 43.7188 158.16 44.291 158.52 44.6816C158.883 45.0723 159.393 45.2676 160.049 45.2676C160.74 45.2676 161.424 45.123 162.1 44.834V45.7012C161.756 45.8496 161.43 45.9551 161.121 46.0176C160.816 46.084 160.447 46.1172 160.014 46.1172ZM159.75 40.2754C159.234 40.2754 158.822 40.4434 158.514 40.7793C158.209 41.1152 158.029 41.5801 157.975 42.1738H161.332C161.332 41.5605 161.195 41.0918 160.922 40.7676C160.648 40.4395 160.258 40.2754 159.75 40.2754ZM167.988 46L167.795 45.0859H167.748C167.428 45.4883 167.107 45.7617 166.787 45.9062C166.471 46.0469 166.074 46.1172 165.598 46.1172C164.961 46.1172 164.461 45.9531 164.098 45.625C163.738 45.2969 163.559 44.8301 163.559 44.2246C163.559 42.9277 164.596 42.248 166.67 42.1855L167.76 42.1504V41.752C167.76 41.248 167.65 40.877 167.432 40.6387C167.217 40.3965 166.871 40.2754 166.395 40.2754C165.859 40.2754 165.254 40.4395 164.578 40.7676L164.279 40.0234C164.596 39.8516 164.941 39.7168 165.316 39.6191C165.695 39.5215 166.074 39.4727 166.453 39.4727C167.219 39.4727 167.785 39.6426 168.152 39.9824C168.523 40.3223 168.709 40.8672 168.709 41.6172V46H167.988ZM165.791 45.3145C166.396 45.3145 166.871 45.1484 167.215 44.8164C167.562 44.4844 167.736 44.0195 167.736 43.4219V42.8418L166.764 42.8828C165.99 42.9102 165.432 43.0312 165.088 43.2461C164.748 43.457 164.578 43.7871 164.578 44.2363C164.578 44.5879 164.684 44.8555 164.895 45.0391C165.109 45.2227 165.408 45.3145 165.791 45.3145ZM178.904 46V41.8223C178.904 41.3105 178.795 40.9277 178.576 40.6738C178.357 40.416 178.018 40.2871 177.557 40.2871C176.951 40.2871 176.504 40.4609 176.215 40.8086C175.926 41.1562 175.781 41.6914 175.781 42.4141V46H174.809V41.8223C174.809 41.3105 174.699 40.9277 174.48 40.6738C174.262 40.416 173.92 40.2871 173.455 40.2871C172.846 40.2871 172.398 40.4707 172.113 40.8379C171.832 41.2012 171.691 41.7988 171.691 42.6309V46H170.719V39.5781H171.51L171.668 40.457H171.715C171.898 40.1445 172.156 39.9004 172.488 39.7246C172.824 39.5488 173.199 39.4609 173.613 39.4609C174.617 39.4609 175.273 39.8242 175.582 40.5508H175.629C175.82 40.2148 176.098 39.9492 176.461 39.7539C176.824 39.5586 177.238 39.4609 177.703 39.4609C178.43 39.4609 178.973 39.6484 179.332 40.0234C179.695 40.3945 179.877 40.9902 179.877 41.8105V46H178.904ZM188.953 46L188.76 45.0859H188.713C188.393 45.4883 188.072 45.7617 187.752 45.9062C187.436 46.0469 187.039 46.1172 186.562 46.1172C185.926 46.1172 185.426 45.9531 185.062 45.625C184.703 45.2969 184.523 44.8301 184.523 44.2246C184.523 42.9277 185.561 42.248 187.635 42.1855L188.725 42.1504V41.752C188.725 41.248 188.615 40.877 188.396 40.6387C188.182 40.3965 187.836 40.2754 187.359 40.2754C186.824 40.2754 186.219 40.4395 185.543 40.7676L185.244 40.0234C185.561 39.8516 185.906 39.7168 186.281 39.6191C186.66 39.5215 187.039 39.4727 187.418 39.4727C188.184 39.4727 188.75 39.6426 189.117 39.9824C189.488 40.3223 189.674 40.8672 189.674 41.6172V46H188.953ZM186.756 45.3145C187.361 45.3145 187.836 45.1484 188.18 44.8164C188.527 44.4844 188.701 44.0195 188.701 43.4219V42.8418L187.729 42.8828C186.955 42.9102 186.396 43.0312 186.053 43.2461C185.713 43.457 185.543 43.7871 185.543 44.2363C185.543 44.5879 185.648 44.8555 185.859 45.0391C186.074 45.2227 186.373 45.3145 186.756 45.3145ZM193.09 46L190.652 39.5781H191.695L193.078 43.3867C193.391 44.2773 193.574 44.8555 193.629 45.1211H193.676C193.719 44.9141 193.854 44.4863 194.08 43.8379C194.311 43.1855 194.824 41.7656 195.621 39.5781H196.664L194.227 46H193.09ZM201.645 46L201.451 45.0859H201.404C201.084 45.4883 200.764 45.7617 200.443 45.9062C200.127 46.0469 199.73 46.1172 199.254 46.1172C198.617 46.1172 198.117 45.9531 197.754 45.625C197.395 45.2969 197.215 44.8301 197.215 44.2246C197.215 42.9277 198.252 42.248 200.326 42.1855L201.416 42.1504V41.752C201.416 41.248 201.307 40.877 201.088 40.6387C200.873 40.3965 200.527 40.2754 200.051 40.2754C199.516 40.2754 198.91 40.4395 198.234 40.7676L197.936 40.0234C198.252 39.8516 198.598 39.7168 198.973 39.6191C199.352 39.5215 199.73 39.4727 200.109 39.4727C200.875 39.4727 201.441 39.6426 201.809 39.9824C202.18 40.3223 202.365 40.8672 202.365 41.6172V46H201.645ZM199.447 45.3145C200.053 45.3145 200.527 45.1484 200.871 44.8164C201.219 44.4844 201.393 44.0195 201.393 43.4219V42.8418L200.42 42.8828C199.646 42.9102 199.088 43.0312 198.744 43.2461C198.404 43.457 198.234 43.7871 198.234 44.2363C198.234 44.5879 198.34 44.8555 198.551 45.0391C198.766 45.2227 199.064 45.3145 199.447 45.3145ZM205.348 46H204.375V39.5781H205.348V46ZM204.293 37.8379C204.293 37.6152 204.348 37.4531 204.457 37.3516C204.566 37.2461 204.703 37.1934 204.867 37.1934C205.023 37.1934 205.158 37.2461 205.271 37.3516C205.385 37.457 205.441 37.6191 205.441 37.8379C205.441 38.0566 205.385 38.2207 205.271 38.3301C205.158 38.4355 205.023 38.4883 204.867 38.4883C204.703 38.4883 204.566 38.4355 204.457 38.3301C204.348 38.2207 204.293 38.0566 204.293 37.8379ZM208.383 46H207.41V36.8828H208.383V46ZM214.395 46L214.201 45.0859H214.154C213.834 45.4883 213.514 45.7617 213.193 45.9062C212.877 46.0469 212.48 46.1172 212.004 46.1172C211.367 46.1172 210.867 45.9531 210.504 45.625C210.145 45.2969 209.965 44.8301 209.965 44.2246C209.965 42.9277 211.002 42.248 213.076 42.1855L214.166 42.1504V41.752C214.166 41.248 214.057 40.877 213.838 40.6387C213.623 40.3965 213.277 40.2754 212.801 40.2754C212.266 40.2754 211.66 40.4395 210.984 40.7676L210.686 40.0234C211.002 39.8516 211.348 39.7168 211.723 39.6191C212.102 39.5215 212.48 39.4727 212.859 39.4727C213.625 39.4727 214.191 39.6426 214.559 39.9824C214.93 40.3223 215.115 40.8672 215.115 41.6172V46H214.395ZM212.197 45.3145C212.803 45.3145 213.277 45.1484 213.621 44.8164C213.969 44.4844 214.143 44.0195 214.143 43.4219V42.8418L213.17 42.8828C212.396 42.9102 211.838 43.0312 211.494 43.2461C211.154 43.457 210.984 43.7871 210.984 44.2363C210.984 44.5879 211.09 44.8555 211.301 45.0391C211.516 45.2227 211.814 45.3145 212.197 45.3145ZM220.113 39.4727C220.957 39.4727 221.611 39.7617 222.076 40.3398C222.545 40.9141 222.779 41.7285 222.779 42.7832C222.779 43.8379 222.543 44.6582 222.07 45.2441C221.602 45.8262 220.949 46.1172 220.113 46.1172C219.695 46.1172 219.312 46.041 218.965 45.8887C218.621 45.7324 218.332 45.4941 218.098 45.1738H218.027L217.822 46H217.125V36.8828H218.098V39.0977C218.098 39.5938 218.082 40.0391 218.051 40.4336H218.098C218.551 39.793 219.223 39.4727 220.113 39.4727ZM219.973 40.2871C219.309 40.2871 218.83 40.4785 218.537 40.8613C218.244 41.2402 218.098 41.8809 218.098 42.7832C218.098 43.6855 218.248 44.332 218.549 44.7227C218.85 45.1094 219.332 45.3027 219.996 45.3027C220.594 45.3027 221.039 45.0859 221.332 44.6523C221.625 44.2148 221.771 43.5879 221.771 42.7715C221.771 41.9355 221.625 41.3125 221.332 40.9023C221.039 40.4922 220.586 40.2871 219.973 40.2871ZM225.457 46H224.484V36.8828H225.457V46ZM230.232 46.1172C229.283 46.1172 228.533 45.8281 227.982 45.25C227.436 44.6719 227.162 43.8691 227.162 42.8418C227.162 41.8066 227.416 40.9844 227.924 40.375C228.436 39.7656 229.121 39.4609 229.98 39.4609C230.785 39.4609 231.422 39.7266 231.891 40.2578C232.359 40.7852 232.594 41.4824 232.594 42.3496V42.9648H228.17C228.189 43.7188 228.379 44.291 228.738 44.6816C229.102 45.0723 229.611 45.2676 230.268 45.2676C230.959 45.2676 231.643 45.123 232.318 44.834V45.7012C231.975 45.8496 231.648 45.9551 231.34 46.0176C231.035 46.084 230.666 46.1172 230.232 46.1172ZM229.969 40.2754C229.453 40.2754 229.041 40.4434 228.732 40.7793C228.428 41.1152 228.248 41.5801 228.193 42.1738H231.551C231.551 41.5605 231.414 41.0918 231.141 40.7676C230.867 40.4395 230.477 40.2754 229.969 40.2754Z" fill="#807E7E"/>
<path d="M75.3594 23H73.5078V11.5781H79.9531V13.1562H75.3594V16.7266H79.6641V18.3125H75.3594V23ZM86.2109 14.2031C86.5807 14.2031 86.8854 14.2292 87.125 14.2812L86.9453 15.9922C86.6849 15.9297 86.4141 15.8984 86.1328 15.8984C85.3984 15.8984 84.8021 16.138 84.3438 16.6172C83.8906 17.0964 83.6641 17.7188 83.6641 18.4844V23H81.8281V14.3594H83.2656L83.5078 15.8828H83.6016C83.888 15.3672 84.2604 14.9583 84.7188 14.6562C85.1823 14.3542 85.6797 14.2031 86.2109 14.2031ZM90.5703 23H88.7344V14.3594H90.5703V23ZM88.625 12.0703C88.625 11.7422 88.7135 11.4896 88.8906 11.3125C89.0729 11.1354 89.3307 11.0469 89.6641 11.0469C89.987 11.0469 90.237 11.1354 90.4141 11.3125C90.5964 11.4896 90.6875 11.7422 90.6875 12.0703C90.6875 12.3828 90.5964 12.6302 90.4141 12.8125C90.237 12.9896 89.987 13.0781 89.6641 13.0781C89.3307 13.0781 89.0729 12.9896 88.8906 12.8125C88.7135 12.6302 88.625 12.3828 88.625 12.0703ZM96.9766 23.1562C95.6328 23.1562 94.5807 22.7656 93.8203 21.9844C93.0651 21.1979 92.6875 20.1172 92.6875 18.7422C92.6875 17.3307 93.0391 16.2214 93.7422 15.4141C94.4453 14.6068 95.4115 14.2031 96.6406 14.2031C97.7812 14.2031 98.6823 14.5495 99.3438 15.2422C100.005 15.9349 100.336 16.888 100.336 18.1016V19.0938H94.5781C94.6042 19.9323 94.8307 20.5781 95.2578 21.0312C95.6849 21.4792 96.2865 21.7031 97.0625 21.7031C97.5729 21.7031 98.0469 21.6562 98.4844 21.5625C98.9271 21.4635 99.401 21.3021 99.9062 21.0781V22.5703C99.4583 22.7839 99.0052 22.9349 98.5469 23.0234C98.0885 23.112 97.5651 23.1562 96.9766 23.1562ZM96.6406 15.5938C96.0573 15.5938 95.5885 15.7786 95.2344 16.1484C94.8854 16.5182 94.6771 17.0573 94.6094 17.7656H98.5312C98.5208 17.0521 98.349 16.513 98.0156 16.1484C97.6823 15.7786 97.224 15.5938 96.6406 15.5938ZM110.023 23H108.18V17.6875C108.18 17.0208 108.044 16.5234 107.773 16.1953C107.508 15.8672 107.083 15.7031 106.5 15.7031C105.724 15.7031 105.156 15.9323 104.797 16.3906C104.438 16.849 104.258 17.6172 104.258 18.6953V23H102.422V14.3594H103.859L104.117 15.4922H104.211C104.471 15.0807 104.841 14.763 105.32 14.5391C105.799 14.3151 106.331 14.2031 106.914 14.2031C108.987 14.2031 110.023 15.2578 110.023 17.3672V23ZM115.492 23.1562C114.414 23.1562 113.573 22.7656 112.969 21.9844C112.365 21.2031 112.062 20.1068 112.062 18.6953C112.062 17.2786 112.367 16.1771 112.977 15.3906C113.591 14.599 114.44 14.2031 115.523 14.2031C116.659 14.2031 117.523 14.6224 118.117 15.4609H118.211C118.122 14.8411 118.078 14.3516 118.078 13.9922V10.8438H119.922V23H118.484L118.164 21.8672H118.078C117.49 22.7266 116.628 23.1562 115.492 23.1562ZM115.984 21.6719C116.74 21.6719 117.289 21.4609 117.633 21.0391C117.977 20.612 118.154 19.9219 118.164 18.9688V18.7109C118.164 17.6224 117.987 16.849 117.633 16.3906C117.279 15.9323 116.724 15.7031 115.969 15.7031C115.323 15.7031 114.826 15.9661 114.477 16.4922C114.128 17.013 113.953 17.7578 113.953 18.7266C113.953 19.6849 114.122 20.4167 114.461 20.9219C114.799 21.4219 115.307 21.6719 115.984 21.6719ZM124.383 23H122.547V10.8438H124.383V23ZM125.703 14.3594H127.703L129.461 19.2578C129.727 19.9557 129.904 20.612 129.992 21.2266H130.055C130.102 20.9401 130.188 20.5938 130.312 20.1875C130.438 19.776 131.099 17.8333 132.297 14.3594H134.281L130.586 24.1484C129.914 25.9453 128.794 26.8438 127.227 26.8438C126.82 26.8438 126.424 26.7995 126.039 26.7109V25.2578C126.315 25.3203 126.63 25.3516 126.984 25.3516C127.87 25.3516 128.492 24.8385 128.852 23.8125L129.172 23L125.703 14.3594ZM145.555 20.5391C145.555 21.3828 145.247 22.0312 144.633 22.4844C144.018 22.9323 143.138 23.1562 141.992 23.1562C140.841 23.1562 139.917 22.9818 139.219 22.6328V21.0469C140.234 21.5156 141.18 21.75 142.055 21.75C143.185 21.75 143.75 21.4089 143.75 20.7266C143.75 20.5078 143.688 20.3255 143.562 20.1797C143.438 20.0339 143.232 19.8828 142.945 19.7266C142.659 19.5703 142.26 19.3932 141.75 19.1953C140.755 18.8099 140.081 18.4245 139.727 18.0391C139.378 17.6536 139.203 17.1536 139.203 16.5391C139.203 15.7995 139.5 15.2266 140.094 14.8203C140.693 14.4089 141.505 14.2031 142.531 14.2031C143.547 14.2031 144.508 14.4089 145.414 14.8203L144.82 16.2031C143.888 15.8177 143.104 15.625 142.469 15.625C141.5 15.625 141.016 15.901 141.016 16.4531C141.016 16.724 141.141 16.9531 141.391 17.1406C141.646 17.3281 142.198 17.5859 143.047 17.9141C143.76 18.1901 144.279 18.4427 144.602 18.6719C144.924 18.901 145.164 19.1667 145.32 19.4688C145.477 19.7656 145.555 20.1224 145.555 20.5391ZM153.641 23L153.383 21.8672H153.289C153.034 22.2682 152.669 22.5833 152.195 22.8125C151.727 23.0417 151.19 23.1562 150.586 23.1562C149.539 23.1562 148.758 22.8958 148.242 22.375C147.727 21.8542 147.469 21.0651 147.469 20.0078V14.3594H149.32V19.6875C149.32 20.349 149.456 20.8464 149.727 21.1797C149.997 21.5078 150.422 21.6719 151 21.6719C151.771 21.6719 152.336 21.4427 152.695 20.9844C153.06 20.5208 153.242 19.7474 153.242 18.6641V14.3594H155.086V23H153.641ZM162.086 23.1562C160.992 23.1562 160.143 22.763 159.539 21.9766H159.43C159.503 22.7057 159.539 23.1484 159.539 23.3047V26.8438H157.703V14.3594H159.188C159.229 14.5208 159.315 14.9062 159.445 15.5156H159.539C160.112 14.6406 160.971 14.2031 162.117 14.2031C163.195 14.2031 164.034 14.5938 164.633 15.375C165.237 16.1562 165.539 17.2526 165.539 18.6641C165.539 20.0755 165.232 21.1771 164.617 21.9688C164.008 22.7604 163.164 23.1562 162.086 23.1562ZM161.641 15.7031C160.911 15.7031 160.378 15.9167 160.039 16.3438C159.706 16.7708 159.539 17.4531 159.539 18.3906V18.6641C159.539 19.7161 159.706 20.4792 160.039 20.9531C160.372 21.4219 160.917 21.6562 161.672 21.6562C162.307 21.6562 162.797 21.3958 163.141 20.875C163.484 20.3542 163.656 19.612 163.656 18.6484C163.656 17.6797 163.484 16.9479 163.141 16.4531C162.802 15.9531 162.302 15.7031 161.641 15.7031ZM172.055 23.1562C170.961 23.1562 170.112 22.763 169.508 21.9766H169.398C169.471 22.7057 169.508 23.1484 169.508 23.3047V26.8438H167.672V14.3594H169.156C169.198 14.5208 169.284 14.9062 169.414 15.5156H169.508C170.081 14.6406 170.94 14.2031 172.086 14.2031C173.164 14.2031 174.003 14.5938 174.602 15.375C175.206 16.1562 175.508 17.2526 175.508 18.6641C175.508 20.0755 175.201 21.1771 174.586 21.9688C173.977 22.7604 173.133 23.1562 172.055 23.1562ZM171.609 15.7031C170.88 15.7031 170.346 15.9167 170.008 16.3438C169.674 16.7708 169.508 17.4531 169.508 18.3906V18.6641C169.508 19.7161 169.674 20.4792 170.008 20.9531C170.341 21.4219 170.885 21.6562 171.641 21.6562C172.276 21.6562 172.766 21.3958 173.109 20.875C173.453 20.3542 173.625 19.612 173.625 18.6484C173.625 17.6797 173.453 16.9479 173.109 16.4531C172.771 15.9531 172.271 15.7031 171.609 15.7031ZM185.305 18.6641C185.305 20.0755 184.943 21.1771 184.219 21.9688C183.495 22.7604 182.487 23.1562 181.195 23.1562C180.388 23.1562 179.674 22.974 179.055 22.6094C178.435 22.2448 177.958 21.7214 177.625 21.0391C177.292 20.3568 177.125 19.5651 177.125 18.6641C177.125 17.263 177.484 16.1693 178.203 15.3828C178.922 14.5964 179.935 14.2031 181.242 14.2031C182.492 14.2031 183.482 14.6068 184.211 15.4141C184.94 16.2161 185.305 17.2995 185.305 18.6641ZM179.016 18.6641C179.016 20.6589 179.753 21.6562 181.227 21.6562C182.685 21.6562 183.414 20.6589 183.414 18.6641C183.414 16.6901 182.68 15.7031 181.211 15.7031C180.44 15.7031 179.88 15.9583 179.531 16.4688C179.188 16.9792 179.016 17.7109 179.016 18.6641ZM191.805 14.2031C192.174 14.2031 192.479 14.2292 192.719 14.2812L192.539 15.9922C192.279 15.9297 192.008 15.8984 191.727 15.8984C190.992 15.8984 190.396 16.138 189.938 16.6172C189.484 17.0964 189.258 17.7188 189.258 18.4844V23H187.422V14.3594H188.859L189.102 15.8828H189.195C189.482 15.3672 189.854 14.9583 190.312 14.6562C190.776 14.3542 191.273 14.2031 191.805 14.2031ZM197.547 21.6719C197.995 21.6719 198.443 21.6016 198.891 21.4609V22.8438C198.688 22.9323 198.424 23.0052 198.102 23.0625C197.784 23.125 197.453 23.1562 197.109 23.1562C195.37 23.1562 194.5 22.2396 194.5 20.4062V15.75H193.32V14.9375L194.586 14.2656L195.211 12.4375H196.344V14.3594H198.805V15.75H196.344V20.375C196.344 20.8177 196.453 21.1458 196.672 21.3594C196.896 21.5677 197.188 21.6719 197.547 21.6719Z" fill="#212121"/>
<path fill-rule="evenodd" clip-rule="evenodd" d="M8.87649 15.481C9.24105 14.286 10.3523 13.4166 11.6667 13.4166H44.3333C45.6477 13.4166 46.759 14.286 47.1235 15.481L28 28.2301L8.87649 15.481ZM5.25008 16.3012C5.24976 16.3199 5.24973 16.3386 5.25 16.3572V39.6666C5.25 43.2105 8.12284 46.0833 11.6667 46.0833H44.3333C47.8772 46.0833 50.75 43.2105 50.75 39.6666V16.3572M47.25 19.6032V39.6666C47.25 41.2775 45.9442 42.5833 44.3333 42.5833H11.6667C10.0558 42.5833 8.75 41.2775 8.75 39.6666V19.6032L27.0293 31.7894C27.6171 32.1813 28.3829 32.1813 28.9707 31.7894L47.25 19.6032ZM50.7499 16.3013C50.7327 12.7722 47.8665 9.91663 44.3333 9.91663H11.6667C8.13353 9.91663 5.26734 12.7722 5.25008 16.3012" fill="#212121"/>
</g>
<defs>
<clipPath id="clip0_878_100425">
<rect width="234" height="56" fill="white"/>
</clipPath>
</defs>
</svg>
