<svg width="129" height="17" viewBox="0 0 129 17" fill="none" xmlns="http://www.w3.org/2000/svg">
<path fill-rule="evenodd" clip-rule="evenodd" d="M13.0804 16.4167C12.8518 16.4167 12.6487 16.3406 12.471 16.239L8.86551 13.8777C8.81473 13.8523 8.78934 13.8523 8.73856 13.8777L5.13309 16.239C4.92996 16.3406 4.72684 16.4167 4.49832 16.4167C4.14285 16.4167 3.81278 16.2644 3.60965 15.9851C3.38113 15.7058 3.30496 15.3503 3.40653 15.0203L4.42215 10.5769C4.42215 10.5261 4.42215 10.4753 4.37137 10.45L1.0452 7.45386C0.715119 7.14917 0.588166 6.66675 0.715119 6.23511C0.867463 5.80347 1.24832 5.49878 1.70535 5.47339L5.99637 5.14331C6.04715 5.14331 6.07254 5.11792 6.09793 5.06714L7.69754 0.903076C7.90067 0.446045 8.30692 0.166748 8.78934 0.166748C9.27176 0.166748 9.67801 0.446045 9.85574 0.903076L11.4554 5.06714C11.4807 5.11792 11.5061 5.14331 11.5569 5.14331L15.8479 5.47339C16.305 5.49878 16.6858 5.80347 16.8382 6.23511C16.9905 6.66675 16.8636 7.14917 16.5081 7.45386L13.1819 10.45C13.1565 10.4753 13.1311 10.5261 13.1311 10.5769L14.1722 15.0203C14.2483 15.3503 14.1722 15.7058 13.969 15.9851C13.7659 16.2644 13.4104 16.4167 13.0804 16.4167ZM40.471 16.239C40.6487 16.3406 40.8518 16.4167 41.0804 16.4167C41.4104 16.4167 41.7659 16.2644 41.969 15.9851C42.1721 15.7058 42.2483 15.3503 42.1722 15.0203L41.1311 10.5769C41.1311 10.5261 41.1565 10.4753 41.1819 10.45L44.5081 7.45386C44.8636 7.14917 44.9905 6.66675 44.8382 6.23511C44.6858 5.80347 44.305 5.49878 43.8479 5.47339L39.5569 5.14331C39.5061 5.14331 39.4807 5.11792 39.4554 5.06714L37.8557 0.903076C37.678 0.446045 37.2718 0.166748 36.7893 0.166748C36.3069 0.166748 35.9007 0.446045 35.6975 0.903076L34.0979 5.06714C34.0725 5.11792 34.0471 5.14331 33.9964 5.14331L29.7054 5.47339C29.2483 5.49878 28.8675 5.80347 28.7151 6.23511C28.5882 6.66675 28.7151 7.14917 29.0452 7.45386L32.3714 10.45C32.4222 10.4753 32.4222 10.5261 32.4222 10.5769L31.4065 15.0203C31.305 15.3503 31.3811 15.7058 31.6097 15.9851C31.8128 16.2644 32.1429 16.4167 32.4983 16.4167C32.7268 16.4167 32.93 16.3406 33.1331 16.239L36.7386 13.8777C36.7893 13.8523 36.8147 13.8523 36.8655 13.8777L40.471 16.239ZM69.0804 16.4167C68.8518 16.4167 68.6487 16.3406 68.471 16.239L64.8655 13.8777C64.8147 13.8523 64.7893 13.8523 64.7386 13.8777L61.1331 16.239C60.93 16.3406 60.7268 16.4167 60.4983 16.4167C60.1429 16.4167 59.8128 16.2644 59.6096 15.9851C59.3811 15.7058 59.305 15.3503 59.4065 15.0203L60.4221 10.5769C60.4221 10.5261 60.4221 10.4753 60.3714 10.45L57.0452 7.45386C56.7151 7.14917 56.5882 6.66675 56.7151 6.23511C56.8675 5.80347 57.2483 5.49878 57.7054 5.47339L61.9964 5.14331C62.0471 5.14331 62.0725 5.11792 62.0979 5.06714L63.6975 0.903076C63.9007 0.446045 64.3069 0.166748 64.7893 0.166748C65.2718 0.166748 65.678 0.446045 65.8557 0.903076L67.4554 5.06714C67.4807 5.11792 67.5061 5.14331 67.5569 5.14331L71.8479 5.47339C72.305 5.49878 72.6858 5.80347 72.8382 6.23511C72.9905 6.66675 72.8636 7.14917 72.5081 7.45386L69.1819 10.45C69.1565 10.4753 69.1311 10.5261 69.1311 10.5769L70.1721 15.0203C70.2483 15.3503 70.1721 15.7058 69.969 15.9851C69.7659 16.2644 69.4104 16.4167 69.0804 16.4167ZM96.471 16.239C96.6487 16.3406 96.8518 16.4167 97.0804 16.4167C97.4104 16.4167 97.7659 16.2644 97.969 15.9851C98.1721 15.7058 98.2483 15.3503 98.1722 15.0203L97.1311 10.5769C97.1311 10.5261 97.1565 10.4753 97.1819 10.45L100.508 7.45386C100.864 7.14917 100.991 6.66675 100.838 6.23511C100.686 5.80347 100.305 5.49878 99.8479 5.47339L95.5569 5.14331C95.5061 5.14331 95.4807 5.11792 95.4554 5.06714L93.8557 0.903076C93.678 0.446045 93.2718 0.166748 92.7893 0.166748C92.3069 0.166748 91.9007 0.446045 91.6975 0.903076L90.0979 5.06714C90.0725 5.11792 90.0471 5.14331 89.9964 5.14331L85.7054 5.47339C85.2483 5.49878 84.8675 5.80347 84.7151 6.23511C84.5882 6.66675 84.7151 7.14917 85.0452 7.45386L88.3714 10.45C88.4221 10.4753 88.4221 10.5261 88.4221 10.5769L87.4065 15.0203C87.305 15.3503 87.3811 15.7058 87.6096 15.9851C87.8128 16.2644 88.1429 16.4167 88.4983 16.4167C88.7268 16.4167 88.93 16.3406 89.1331 16.239L92.7386 13.8777C92.7893 13.8523 92.8147 13.8523 92.8655 13.8777L96.471 16.239ZM124.471 16.239C124.649 16.3406 124.852 16.4167 125.08 16.4167C125.41 16.4167 125.766 16.2644 125.969 15.9851C126.172 15.7058 126.248 15.3503 126.172 15.0203L125.131 10.5769C125.131 10.5261 125.157 10.4753 125.182 10.45L128.508 7.45386C128.864 7.14917 128.991 6.66675 128.838 6.23511C128.686 5.80347 128.305 5.49878 127.848 5.47339L123.557 5.14331C123.506 5.14331 123.481 5.11792 123.455 5.06714L121.856 0.903076C121.678 0.446045 121.272 0.166748 120.789 0.166748C120.307 0.166748 119.901 0.446045 119.698 0.903076L118.098 5.06714C118.073 5.11792 118.047 5.14331 117.996 5.14331L113.705 5.47339C113.248 5.49878 112.867 5.80347 112.715 6.23511C112.588 6.66675 112.715 7.14917 113.045 7.45386L116.371 10.45C116.422 10.4753 116.422 10.5261 116.422 10.5769L115.407 15.0203C115.305 15.3503 115.381 15.7058 115.61 15.9851C115.813 16.2644 116.143 16.4167 116.498 16.4167C116.727 16.4167 116.93 16.3406 117.133 16.239L120.739 13.8777C120.789 13.8523 120.815 13.8523 120.866 13.8777L124.471 16.239Z" fill="#FD7E14"/>
</svg>
